<svg xmlns="http://www.w3.org/2000/svg" width="900" height="1155"><path fill="#232323" d="m611.625 62.75 3.13-.004c14.915.004 29.745.464 44.62 1.566l2.47.178c9.684.72 19.229 1.864 28.803 3.501 4.199.713 8.271 1.195 12.539 1.321 16.972 1.129 38.782 6.144 51.25 18.563 2.746 3.625 3.328 6.84 3.297 11.339.242 2.543.729 4.25 1.59 6.621 2.131 6.099 3.205 12.407 4.355 18.746.379 2.086.768 4.169 1.158 6.252 2.262 12.18 4.119 24.386 5.225 36.729l.252 2.725c.715 7.829 1.368 15.663 1.861 23.509.349 5.175.822 10.314 1.485 15.457 1.765 13.726 2.947 27.384 3.693 41.197l.217 3.94.18 3.501c.155 3.007.155 3.007.839 5.459.502 3.24.089 6.031-.327 9.267-.417 3.786-.366 7.547-.325 11.351l.026 5.133.019 2.673c.3 47.428.3 47.428-4.288 62.811-1.552 5.394-2.886 10.847-4.257 16.29l-.94 3.689c-1.684 6.73-3.06 13.377-3.997 20.248-1.128 7.867-3.777 14.348-7.509 21.33a303.863 303.863 0 0 0-3.015 5.842c-3.473 6.781-7.141 13.092-11.976 19.016l1 1c.039 1.41.007 2.823-.055 4.234l-.111 2.735-.139 2.995-.132 3.095c-.141 3.293-.29 6.585-.438 9.878l-.278 6.467c-.412 9.556-.851 19.11-1.355 28.662l-.106 2.106c-.256 4.649-.769 9.216-1.386 13.828 6.149.133 11.768-.314 17.812-1.375 8.578-1.397 17.145-2.203 25.813-2.813l3.553-.253c17.961-1.192 33.893.066 48.65 11.663 15.234 14.37 20.735 32.227 21.362 52.587.083 4.189.091 8.376.07 12.566-.011 2.584 0 5.167.013 7.751-.001 1.676-.004 3.351-.008 5.026l.012 2.292c-.04 4.698-.706 8.919-1.813 13.481-.613 2.737-.801 5.412-.922 8.211l-.185 3.248a613.31 613.31 0 0 0-.305 6.641c-.409 6.708-1 10.387-6.052 14.975-2.582 1.721-4.527 2.108-7.625 2.75L836 654c-1.7 3.933-2.314 7.642-2.641 11.89l-.297 3.526-.312 3.834c-1.294 14.933-3.352 29.722-5.593 44.54-2.115 14.103-3.681 28.232-4.579 42.467-.697 10.913-1.79 19.954-9.891 28.055L810 790c-1.503.996-3.002 1.997-4.5 3l-2.219 1.437c-2.368 1.567-2.368 1.567-4.731 3.617-19.084 14.555-57.971 8.157-80.55 7.946l-.643 3.003c-3.017 13.931-6.495 27.74-9.982 41.559-.881 3.495-1.761 6.991-2.64 10.487a6783.02 6783.02 0 0 1-1.629 6.464c-1.122 4.455-2.215 8.908-3.191 13.398-1.068 4.888-2.593 9.551-4.228 14.276l-.857 2.615c-2.368 6.862-5.471 12.25-11.83 16.198h-2l-3 10c15.888-1.519 15.888-1.519 31.375-5.125 20.448-5.965 43.244-4.432 61.92 5.636 6.516 3.709 11.578 8.012 16.267 13.926 2.341 2.95 4.665 5.826 7.25 8.563 9.548 13.094 10.922 34.348 11.188 50l.062 3.16c.627 37.121.627 37.121-8.062 54.84l-1 2.402c-3.409 7.928-9.871 12.615-17.727 15.765L777 1074l-2.149.8c-10.614 3.736-20.82 5.596-32.066 6.052-10.966.459-21.763 1.315-32.598 3.148l-3.015.503c-5.375.953-5.375.953-10.172 3.497l-2.938-.063c-3.047-.255-3.047-.255-4.81 1.509-3.103 2.14-5.614 2.164-9.358 2.468l-2.135.18c-2.315.192-4.63.362-6.947.531l-4.829.38c-12.446.949-24.893 1.458-37.371 1.704-7.538.113-7.538.113-15.034.822-3.897.51-7.663.457-11.578.344-7.089-.104-13.505.85-20.457 2.328-6.747 1.307-13.625 1.658-20.47 2.15l-2.994.217-2.675.18c-2.341.182-2.341.182-4.313.747-2.869.689-5.677.8-8.622.967l-3.898.237c-2.682.157-5.365.309-8.047.461-6.821.417-13.428 1.083-20.15 2.296-6.861 1.102-13.784 1.723-20.697 2.401-2.645.262-5.287.539-7.93.816-10.374 1.049-20.582 1.469-31.005 1.355-4.408-.046-8.798.053-13.202.223l-3.989.151c-2.64.106-5.281.216-7.922.328-6.263.231-12.358.283-18.605-.268-6.372-.536-12.538-.234-18.9.246-4.171.312-8.338.461-12.518.571l-2.103.057c-2.817.075-5.635.145-8.452.214-7.454.186-14.85.461-22.273 1.211-5.704.486-11.432.575-17.153.737-10.954.311-21.87.746-32.75 2.125-4.605.497-8.942.111-13.527-.469-2.501-.316-2.501-.316-5.348.844-5.025.173-9.757-.131-14.726-.879-2.307-.219-2.307-.219-4.658.363-5.245.748-10.441.658-15.733.648l-3.549.003c-2.472.001-4.945-.001-7.418-.005-3.77-.005-7.54 0-11.31.006-2.408 0-4.815-.002-7.223-.004l-3.397.006c-5.763-.017-11.284-.304-16.986-1.138a971.04 971.04 0 0 0-5.125-.125c-6.38-.509-12.285-2.253-18.375-4.125l-2.934-.872c-5.291-1.699-8.557-2.948-11.566-7.878l-1.597-2.063-1.465-1.937-1.473-1.938c-12.066-16.989-11.419-37.758-12.124-57.742-.132-3.629-.311-7.125-.86-10.719-1.117-8.37-.614-16.947-.509-25.375a454.92 454.92 0 0 0-.026-8.82c.028-11.253 1.807-19.572 9.054-28.406 2.481-2.26 4.978-3.584 8-5a442.13 442.13 0 0 0 5.875-3.375l3.11-1.79c3.608-2.196 6.951-4.653 10.273-7.257 8.621-4.961 18.142-5.24 27.867-5.766 1.352-.082 2.704-.164 4.055-.248 3.273-.199 6.546-.387 9.82-.564l-2.108-2.31a3089.808 3089.808 0 0 1-9.974-10.991l-1.793-2.012-1.554-1.738c-5.118-6.353-7.266-12.469-9.633-20.262l-2.035-6.551-.975-3.168c-1.054-3.375-2.172-6.725-3.3-10.076-2.314-6.978-3.924-14.04-5.163-21.279-.551-3.098-1.254-6.147-1.968-9.211-.806-3.902-1.311-7.853-1.836-11.801-.767-3.022-1.185-3.752-3.661-5.601a67.98 67.98 0 0 0-7.566-1.688l-2.278-.386c-7.618-1.178-15.11-1.173-22.797-.98-40.893.959-40.893.959-54.359-10.946-12.777-14.039-14.284-33.859-15.64-52.051l-.163-2.183-.167-2.224C62.755 748.543 60.263 732.554 56 716c-.427-1.716-.853-3.432-1.277-5.149a701.43 701.43 0 0 0-2.058-8.105C52 700 52 700 52 698l-1.976-.333c-12.205-2.214-12.205-2.214-15.645-6.855-1.637-3.339-1.848-5.79-2.004-9.5l-.097-1.959c-.068-1.392-.13-2.784-.187-4.176a926.23 926.23 0 0 0-.551-11.174l-.122-2.296c-.408-7.292-1.202-14.515-2.043-21.77-1.009-9.072-1.686-18.056-1.75-27.187l-.041-2.903C27.655 599.072 30.951 592.01 38 584l1.52-1.805c10.357-11.38 26.894-19.115 41.414-23.528 2.219-.717 4.303-1.614 6.441-2.542 11.743-4.749 24.259-7.414 36.817-8.766 2.756-.196 2.756-.196 4.808-1.359-.833-14.55-1.715-29.087-3.437-43.563l-.333-2.984c-.841-6.644-1.916-10.476-7.163-14.961a388.768 388.768 0 0 0-3.504-2.617C92.994 465.44 92.994 465.44 89 455.687a85.843 85.843 0 0 0-3.898-8.195c-2.734-5.434-4.189-11.192-5.727-17.055l-.928-3.5c-2.146-8.3-3.748-16.383-4.447-24.937l-.242-2.552c-.652-7.138-.904-14.194-.89-21.359a4312.811 4312.811 0 0 1 .007-14.152l.004-3.757c.024-20.537.325-41.054.917-61.581.171-6.005.289-12.011.388-18.017.466-26.916 2.38-53.268 6.412-79.919.856-5.662 1.593-11.279 2.037-16.987 1.499-18.674 6.107-36.967 16.24-52.797 2.436-4.061 4.358-8.428 6.301-12.744 2.468-5.199 4.974-6.965 10.159-9.093l2.48-.855c3.202-1.117 6.367-2.26 9.512-3.531 19.716-7.878 40.393-12.139 61.342-15.157a553.783 553.783 0 0 0 10.56-1.71c23.816-4.033 47.732-6.792 71.776-9.071 5.163-.5 10.297-1.139 15.439-1.822 19.688-2.604 39.492-3.817 59.332-4.555 4.075-.158 8.105-.409 12.16-.845 5.312-.562 10.605-.719 15.941-.871 12.174-.41 24.271-1.394 36.395-2.521a488.592 488.592 0 0 1 25.196-1.618l3.292-.13c10.932-.412 21.864-.629 32.802-.802 3.555-.056 7.11-.117 10.665-.178 7.55-.128 15.1-.253 22.65-.376 8.765-.144 17.529-.29 26.293-.44 3.446-.058 6.892-.113 10.339-.168a1557.67 1557.67 0 0 0 37.183-1.044c10.978-.441 21.949-.59 32.935-.598Z"/><path fill="#D5563D" d="m636.058 78.316 3.938.104c7.91.281 15.656 1.059 23.491 2.118 3.819.502 7.631.847 11.47 1.144 54.069 4.19 54.069 4.19 69.917 19.005 6.743 10.51 8.382 20.532 9.702 32.764.398 2.707.398 2.707 1.393 5.888 1.045 3.715 1.658 7.287 2.178 11.109l.295 2.165c.318 2.357.626 4.715.932 7.074l.325 2.474c1.833 14.042 3.281 28.11 4.55 42.213l.251 2.78c.913 10.22 1.709 20.432 2.244 30.68.207 2.565.608 4.7 1.255 7.165 1.542 17.209 1.173 34.803 1.286 52.066.017 2.259.042 4.518.073 6.777.175 13.252-.499 25.625-3.397 38.581-.858 3.834-1.371 7.624-1.729 11.535-.328 2.871-.989 5.633-1.649 8.442-.71 3.159-1.313 6.332-1.916 9.513-8.139 42.622-8.139 42.622-22.813 54.395-2.112 1.649-2.112 1.649-2.855 4.691-1.422 1.201-2.847 2.401-4.332 3.524-1.817 1.505-1.817 1.505-3.43 3.859-2.685 3.14-5.706 5.073-9.238 7.117l-2.022 1.191c-4.794 2.767-9.66 4.995-14.822 7.001-3.806 1.578-7.43 3.427-11.094 5.308a172.144 172.144 0 0 1-21.062 9l-1.958.71c-20.059 7.251-40.586 10.942-61.663 13.889-2.516.362-2.516.362-5.378 1.401a85.68 85.68 0 0 1-4.041.465l-2.447.233-2.633.24a4490.944 4490.944 0 0 1-11.317 1.062c-2.863.266-5.726.534-8.589.805-1.782.169-3.564.335-5.346.498l-2.457.232-2.153.2c-2.063.271-4.003.752-6.017 1.265-1.761.134-3.525.223-5.289.281l-3.106.114-3.23.105c-2.097.07-4.193.143-6.289.219l-2.811.092c-2.675.154-5.306.391-7.968.673-5.429.56-10.848.835-16.299 1.047l-3.128.126c-13.123.502-26.253.692-39.384.895-3.272.052-6.544.109-9.816.167l-2.993.041c-4.67.085-9.088.336-13.687 1.24a106.4 106.4 0 0 1-5.563.188l-2.754.043c-2.683-.231-2.683-.231-4.8-1.231-3.947-1.369-7.552-1.267-11.7-1.23l-2.582.001c-1.803.003-3.606.011-5.409.023-2.721.018-5.442.021-8.163.021-1.761.004-3.522.01-5.283.017l-2.416.003c-4.269.035-8.469.249-12.719.657-7.113.606-14.208.712-21.343.777l-4.317.049c-4.688.053-9.376.097-14.064.139l-4.898.046c-6.811.063-13.622.124-20.432.178-9.657.076-19.313.167-28.97.279-6.845.078-13.689.139-20.534.188-4.06.03-8.119.066-12.178.12-31.047.406-63.226-1.332-92.807-11.614-2.996-.947-6.027-1.376-9.131-1.841-13.73-2.658-24.626-9.58-34.937-18.813l-3.063-2.367C98.147 446.376 92.908 418.755 90 399.999l-.507-3.256c-2.497-18.945-1.471-38.319-1.159-57.376.055-3.367.106-6.734.157-10.101.125-8.247.26-16.493.4-24.74.076-4.505.147-9.011.21-13.517.443-31.188 2.076-62.252 6.494-93.159.281-1.979.551-3.959.814-5.94 2.398-18.06 5.386-37.934 16.591-52.911l1.871-2.562c13.553-17.754 32.008-24.255 53.316-28.438l1.995-.396a434.797 434.797 0 0 1 30.888-4.955c3.838-.483 7.625-1.112 11.427-1.818 9.613-1.777 19.209-2.498 28.968-3.009 6.991-.407 13.768-1.312 20.645-2.59 9.704-1.788 19.478-3.05 29.265-4.294l3.128-.4c19.547-2.465 39.009-3.58 58.687-4.261 6.439-.234 12.835-.7 19.247-1.339 9.653-.962 19.295-1.334 28.99-1.596l3.378-.096 2.968-.072c2.546-.137 5.014-.369 7.541-.672 4.622-.536 9.201-.703 13.85-.783l2.534-.056c3.535-.078 7.07-.146 10.606-.215 2.599-.052 5.198-.109 7.797-.167l2.391-.041c3.415-.076 6.656-.261 10.044-.756 3.955-.553 7.807-.571 11.788-.511l5.346.041 2.939.025c19.616.152 39.21-.093 58.821-.515l3.282-.07c9.962-.214 19.925-.432 29.886-.675 41.778-1.017 41.778-1.017 61.46-.462Z"/><path fill="#BF442C" d="M728 457c.246 13.999-.024 27.906-.937 41.875l-.132 2.073c-.742 11.487-.742 11.487-1.931 15.052-1.015 9.42-1.215 18.918-1.445 28.384-.056 2.297-.116 4.594-.178 6.891-.151 5.692-.295 11.385-.439 17.078-.122 4.843-.247 9.685-.377 14.528-.059 2.248-.114 4.497-.168 6.746-.168 6.525-.501 12.906-1.393 19.373a277.949 277.949 0 0 0-.246 8.007l-.099 4.489c-.048 2.321-.092 4.642-.131 6.964-.04 2.266-.092 4.532-.145 6.797l-.025 2.084c-.108 4.259-.946 7.663-2.354 11.659-.238 2.254-.238 2.254-.125 4.441l.052 2.489.073 2.632c.115 7.748-.178 15.35-.937 23.063l-.264 2.709c-.357 3.416-.708 6.393-1.799 9.666a296.314 296.314 0 0 0-.683 8.253l-.373 5.03c-.191 2.63-.38 5.261-.566 7.892-1.219 17.094-1.219 17.094-2.96 24.727-.727 3.653-.759 7.321-.855 11.035-.288 7.523-1.187 14.771-2.474 22.184-1.07 6.298-1.549 12.494-1.78 18.875-.294 2.865-.821 4.572-2.309 7.004h-2l1.5 2.156c6.635 12.579-4.823 38.429-8.444 51.121-1.216 4.327-2.254 8.603-3.013 13.035-3.288 18.895-7.93 37.004-23.311 49.496-3.364 2.315-7.088 3.784-10.857 5.317l-2.359 1.011c-33.597 13.953-74.034 14.907-109.9 17.469l-3.252.238c-2.006.145-4.013.287-6.02.422-4.796.35-9.473.888-14.209 1.726-6.487 1.132-12.951 1.653-19.517 2.075l-3.797.252c-12.621.799-25.247 1.18-37.887 1.516-33.897.375-33.897.375-67.453 4.688-15.907 3.06-33.752 1.597-49.918 1.654-1.998.007-3.996.018-5.994.032-2.834.018-5.668.022-8.502.022l-2.595.022-2.407-.01-2.095.005c-2.321-.292-3.912-1.164-5.97-2.247-2.397-.242-2.397-.242-4.964-.125l-2.903.052-3.07.073c-8.601.086-16.625-.202-25.063-2l-5.542-1.106a3185.71 3185.71 0 0 1-6.145-1.269l-2.918-.597c-16.143-3.488-16.143-3.488-21.957-9.278-2.405-2.296-2.405-2.296-5.586-2.887l-2.289.199c-3.99.278-5.66-.445-8.688-3.062a124.98 124.98 0 0 1-3.875-4 2659.54 2659.54 0 0 0-1.808-1.93c-1.787-1.982-3.497-4.009-5.192-6.07l-1.886-2.262c-5.499-6.79-8.208-13.551-10.551-21.863-.434-1.511-.869-3.022-1.305-4.532l-.643-2.238c-.853-2.923-1.764-5.826-2.677-8.73-1.809-5.833-3.39-11.712-4.93-17.622-.969-3.611-2.044-7.177-3.133-10.753-3.956-13.986-4.283-28.211-4.765-42.649-.185-5.453-.398-10.904-.613-16.355l-.126-3.201c-.317-7.879-.708-15.744-1.308-23.608l-.189-2.732c-.387-4.611-1.19-8.88-2.385-13.354-1.575-5.992-2.055-11.744-2.364-17.914-.658-10.512-1.979-20.805-3.687-31.187l-.34-2.085c-.873-7.159-.873-7.159-3.098-13.915.009-3.316.132-6.621.258-9.934.082-3.044.082-3.044-1.706-4.471-1.973-2.029-2.17-3.413-2.639-6.186l-.497-2.835-.501-3.082-.552-3.216a2031.27 2031.27 0 0 1-1.738-10.401c-.402-2.382-.805-4.763-1.209-7.145a1921.283 1921.283 0 0 1-6.807-43.273 288.02 288.02 0 0 0-4.297-22.819c-1.527-6.936-2.131-13.918-2.629-20.995-.293-4.025-.662-7.886-1.604-11.815-1.449-6.047-2.158-12.207-2.938-18.368-.266-2.089-.541-4.177-.816-6.265l-.52-4.047-.469-3.651c-.338-3.522-.394-6.961-.336-10.497 2.024.208 4.044.443 6.063.687l3.41.387c3.964.653 7.58 1.965 11.36 3.312 8.751 3.067 17.644 4.401 26.792 5.739 2.417.356 4.833.716 7.247 1.09 1.485.23 2.971.45 4.458.658 4.152.641 7.54 1.241 10.67 4.127 1.166 5.28 1.052 10.31.915 15.714-.111 9.151.934 18.052 2.109 27.114 3.412 26.529 5.384 52.865 4.904 79.629l-.053 3.96-.07 3.493c.199 3.149.93 5.23 2.195 8.09.258 2.243.443 4.495.563 6.75-.127 3.943-.127 3.943 1.437 7.25.148 1.923.228 3.852.282 5.781l.11 3.701.053 1.983c.056 2.052.12 4.105.187 6.157.204 6.316.38 12.63.478 18.948.398 19.873 3.631 39.157 8.953 58.305l.706 2.555c2.307 7.777 6.206 14.247 13.231 18.57 8.271 2.954 15.394 2.391 23.25-1.25 4.846-2.627 7.736-4.785 9.575-10.161 5.802-20.124 6.362-40.848 6.425-61.652l.016-2.361c.049-9.253-.388-18.193-1.776-27.346-2.019-13.322-1.596-26.796-1.49-40.23 1.79-.838 3.582-1.671 5.375-2.5l3.024-1.407C295 629 295 629 297 629c1.656-4.967 1.65-9.865.125-14.875-2.872-2.873-5.75-3.446-9.652-4.352-2.89-.904-4.381-1.56-6.473-3.773-1.898-5.747-2.483-11.493-3-17.5-.165-1.779-.331-3.558-.5-5.336l-.25-2.652c-.482-4.85-1.126-9.678-1.75-14.512-.654-5.138-1.195-10.288-1.747-15.437a271.494 271.494 0 0 0-1.815-13.376c-1.399-9.331-1.606-18.769-1.938-28.187 4.63-1.801 8.456-2.24 13.411-2.212l2.17.004c2.351.007 4.702.027 7.052.047a3978.9 3978.9 0 0 1 17.85.081c6.903.044 13.807.073 20.71.097 2.409.01 4.817.027 7.226.044l4.43.02 3.902.025c2.668-.087 4.72-.361 7.249-1.106 1.952-.148 3.908-.248 5.864-.317l3.58-.127 3.869-.119 1.994-.063c19.335-.603 38.686-.841 58.006.251 7.431.41 14.487.251 21.861-.766a180.873 180.873 0 0 1 15.502-1.402l2.462-.125c10.859-.517 21.73-.657 32.599-.809 11.678-.171 23.182-.742 34.791-2.051 5.717-.637 11.444-.935 17.187-1.226 3.177-.168 3.177-.168 5.813-.766 3.067-.596 5.974-.613 9.097-.605l3.415-.008C573 498 573 498 576 499l.045 2.581c.483 25.623 2.175 50.937 5.264 76.379l.344 2.854c.555 4.595 1.123 9.189 1.722 13.779 1.532 12.143 2.178 24.166 1.625 36.407-2.307 2.307-7.872 1.459-10.996 1.621-3.114.081-3.114.081-5.004 2.379-.482 6.392-.614 13.155 2.61 18.835 2.563 2.752 4.747 4.795 8.476 5.633 2.107.092 2.107.092 4.914-.468v2l4 1 .184 2.605.254 3.582c.129 1.83.259 3.659.386 5.489.131 1.72.278 3.437.435 5.155.76 8.693.829 17.327.741 26.044-.026 2.705-.046 5.411-.062 8.117l-.035 3.573c.101 3.55.563 6.927 1.097 10.435.111 1.579.196 3.16.247 4.742l.099 2.543c.061 1.718.118 3.437.172 5.156.514 12.661 3.72 24.424 11.482 34.559v2c18.048 1.33 18.048 1.33 34-6 9.366-10.524 6.395-30.422 5.844-43.79-.3-4.586-.751-8.894-1.871-13.351-1.26-5.503-1.231-10.862-1.16-16.484l.022-3.271c.108-11.038.407-22.091 1.165-33.104l.112-2.12c.162-1.888.162-1.888.888-4.88 1.856-1.454 1.856-1.454 4.188-2.25l2.457-.918L652 649c5.187-2.163 5.187-2.163 9-6 .781-5.484.781-5.484-1.652-10.125-2.722-2.175-5.01-2.974-8.348-3.938-7.441-2.167-7.441-2.167-10-4.937-.792-3.399-.792-3.399-1.187-7.375-.487-5.037-.487-5.037-1.316-10.021-.51-2.674-.713-5.216-.838-7.934l-.153-3.184-.154-3.447-.354-7.434-.278-5.958c-.287-6.122-.586-12.244-.887-18.366l-.103-2.075c-.775-15.68-1.761-31.345-2.815-47.009l-.187-2.796c-.113-1.696-.229-3.392-.347-5.088-.277-4.114-.438-8.187-.381-12.313 5.078-2.363 9.834-3.741 15.313-4.813 15.045-3.201 28.477-8.341 42.267-15.145a171.934 171.934 0 0 1 19.317-8.101c3.572-1.273 6.607-2.729 9.728-4.879 3.954-2.415 5.034-2.041 9.375-1.062Z"/><path fill="#242323" d="M496.101 713.948c2.957-.048 5.913-.082 8.871-.112l2.627-.053c10.847-.069 22.742 2.393 31.4 9.216 4.623 4.564 7.785 9.698 10.75 15.437l1.168 2.158c3.717 7.081 5.232 13.682 5.645 21.717.254 4.931.254 4.931 1.437 9.688 1.754 23.252 1.754 23.252-4 32.062-2.835 2.747-3.563 2.93-7.625 3l-3.375-.062c-.429 13.218-.429 13.218 1.5 26.25 3.232 14.307 1.747 29.427.688 43.937l-.212 3.037c-.845 10.143-2.768 19.941-7.976 28.776l-1.133 2.172c-4.586 7.964-12.097 13.816-20.758 16.836-8.431 1.6-17.25 1.133-25.795 1.008l-3.032-.044-2.716-.054c-2.525.003-2.525.003-4.783.566-4.177.775-8.338.734-12.579.797l-2.873.056c-3.027.058-6.053.111-9.08.163-3.974.068-7.948.142-11.922.219l-2.728.041c-4.921.095-9.74.398-14.623 1.025-3.1.337-6.175.27-9.289.215-3.815-.067-7.021.005-10.688 1-22.218 2.432-44.51 2.283-63-12-7.639-7.311-7.388-18.843-7.75-28.75l-.13-3.462c-.324-11.995.389-23.905 1.113-35.874.759-12.657.995-25.232.767-37.914l-3.613-1.207-4.699-1.606-2.381-.791-2.295-.791-2.111-.714c-2.162-1.014-3.402-2.037-4.901-3.891-.441-2.891-.441-2.891-.562-6.25-.139-3.591-.386-6.58-1.436-10.027-1.494-5.554-1.374-10.96-1.372-16.684a376.206 376.206 0 0 0-.079-6.102c-.022-7.272.003-12.096 4.449-17.937.876-1.274 1.749-2.549 2.621-3.824a762.271 762.271 0 0 1 2.817-3.864l1.408-1.97c8.792-12.03 21.102-12.896 35.029-15.342l2.229-.394a3132.04 3132.04 0 0 1 11.021-1.928 664.08 664.08 0 0 0 9.285-1.698c12.057-2.176 24.155-2.445 36.377-2.603 6.155-.093 12.144-.254 18.221-1.366 10.357-1.777 20.95-1.488 31.43-1.636l6.49-.117c5.319-.095 10.639-.165 15.959-.222 2.072-.024 4.143-.053 6.214-.087Z"/><path fill="#198786" d="m594 949 3 2a109.15 109.15 0 0 1 1 7l1 1c.216 1.468.371 2.946.5 4.425l.25 2.862.25 3.025.25 2.803c1.925 22.607 2.031 45.256 2.276 67.927.05 4.715.105 9.431.165 14.146.027 2.193.048 4.385.068 6.578l.051 3.99.038 3.518c-.031 2.691-.031 2.691 1.152 4.726.375 2.937.375 2.937 0 6-3.334 2.47-6.266 3.476-10.332 4.097l-3.133.487-3.347.478-3.476.519c-8.816 1.268-17.626 2.066-26.507 2.698-5.251.395-10.202 1.016-15.33 2.283-6.875 1.685-13.662 1.906-20.711 2.059-4.697.123-9.181.49-13.807 1.331-5.84 1.001-11.645 1.642-17.548 2.118l-3.163.261c-3.402.274-6.805.536-10.208.794l-3.551.272c-21.063 1.584-42 1.94-63.114 1.681l-2.952-.036-2.905-.035c-5.215-.046-10.359.079-15.564.465-11.073.818-22.167.751-33.265.768-3.87.01-7.74.041-11.61.072a6081.2 6081.2 0 0 1-7.398.016l-3.498.037-3.24-.009-2.841.011c-2.964-.436-4.351-1.309-6.5-3.367-.171-2.059-.171-2.059.25-4.438 1.135-8 .926-15.837.27-23.879-.556-7.527-.751-15.037-.908-22.581-.251-11.777-.683-23.485-1.674-35.227-.733-9.102-1.259-18.183-1.438-27.313l-.129-3.342c-.025-2.867.01-5.421.629-8.22 5.213-4.877 10.498-5.333 17.348-5.297 3.53.395 5.109 1.899 7.652 4.297 3.188.796 3.188.796 6 1v-5c4.824-.193 8.497.242 13 2l2-2c5.759-1.151 11.582-1.276 17.438-1.5 7.321-.266 7.321-.266 14.605-1 5.463-.691 10.921-.882 16.418-1.106l2.469-.113 2.226-.092c1.939-.089 1.939-.089 3.844-1.189 2.328-.063 4.657-.06 6.985-.028l4.273.037c2.243.025 4.485.053 6.728.086 2.166.031 4.332.048 6.499.065l3.929.051c3.574-.211 6.237-1.015 9.586-2.211 2.165-.196 2.165-.196 4.196-.125l2.379.051 2.55.074c9.021.136 17.942-.283 26.938-.938l3.694-.264c4.537-.345 8.832-.687 13.243-1.798 1.455-.12 2.913-.2 4.372-.247l2.49-.099c1.713-.061 3.427-.119 5.14-.172l2.495-.104 2.255-.076c2.331-.219 2.331-.219 4.679-1.289 2.831-1.117 5.159-1.401 8.191-1.611l3.305-.239 3.511-.226 3.607-.252a786.86 786.86 0 0 1 26.326-1.344l2.571-.095 2.24-.073c4.037-.385 7.529-1.674 11.818-1.173Z"/><path fill="#BF462E" d="M524 810c2.687 2.113 3.43 3.756 3.914 7.097l.365 2.416.346 2.549.38 2.59a275.66 275.66 0 0 1 1.62 13.41c.115 3.719.115 3.719 1.375 5.938.699 15.769-.883 30.749-4.375 46.125l-.597 2.694c-1.801 7.513-4.688 12.514-10.84 17.368l-2.457 1.98c-6.668 4.475-12.017 5.29-19.891 5.344l-3.024.055c-3.292.056-6.585.09-9.878.121l-6.934.09c-4.852.061-9.704.109-14.556.151-6.154.054-12.306.145-18.459.246-4.782.074-9.565.122-14.348.165-2.264.023-4.528.055-6.792.096-11.677.2-22.834-.195-34.298-2.584l-2.776-.565c-6.723-1.572-12.052-4.467-17.775-8.286 2.592 4.319 4.695 6.488 9 9v3c-7.16-.458-12.621-3.291-18.191-7.758-5.138-6.37-3.931-18.078-3.883-26.043l.008-2.479c.042-8.296.217-16.589.439-24.883.065-2.469.125-4.938.184-7.408.202-8.031.479-16.055.916-24.078l.113-2.205c.295-5.027.295-5.027 1.414-6.146 1.786-.133 1.786-.133 4.063-.125l2.223-.008c2.714.133 2.714.133 6.298.633 4.611.585 9.16.643 13.803.632l2.687.005c2.871.002 5.743-.004 8.614-.012l2.988-.007c6.775-.018 13.55-.059 20.324-.118l2.282-.019c16.205-.15 32.052-1.436 48.101-3.537 8.022-1.046 15.952-1.811 24.037-2.079 6.926-.273 13.715-1.266 20.556-2.35 9.134-1.432 9.134-1.432 13.024-1.015Z"/><path fill="#198685" d="m734.25 931.875 2.075.076c10.64.419 19.332 1.806 28.675 7.049l1.909.867c5.234 2.391 8.925 5.382 12.903 9.508l1.693 1.671c13.82 14.034 12.984 40.329 12.995 59.016l.012 2.331c.006 2.194-.013 4.386-.044 6.579l-.049 3.821c-.448 3.423-1.206 4.657-3.419 7.207-.354 2.511-.354 2.511-.313 5.187-.449 6.388-2.713 9.93-6.687 14.813l-1.942 2.675c-5.253 6.685-9.583 8.868-17.917 10.015-2.498.361-4.975.804-7.458 1.255-3.982.72-7.966 1.413-11.957 2.082a414.842 414.842 0 0 0-10.016 1.789c-10.334 1.949-20.743 2.939-31.21 3.871l-2.244.202c-6.668.595-13.344 1.171-20.037 1.38l-2.22.07c-2.899-.492-4.033-1.112-5.999-3.339-.494-2.978-.695-5.59-.742-8.586l-.086-2.856c-.419-16.452-.319-32.923-.298-49.379.002-3.737-.003-7.474-.007-11.211-.004-3.666-.003-7.331 0-10.996 0-1.72 0-3.44-.003-5.159-.005-4.781.021-9.561.098-14.341.027-1.73.047-3.46.062-5.19.032-2.748.098-5.494.172-8.241l.016-2.563c.212-5.88.212-5.88 3.212-8.993 2.279-1.314 4.03-2.167 6.58-2.716l2.227-.492 2.332-.465 2.424-.516c5.374-1.098 10.633-1.655 16.112-1.931 2.976-.375 5.069-1.176 7.796-2.389 7.079-2.661 13.898-2.443 21.355-2.101Z"/><path fill="#6D6D6D" d="M418 288c2.176 1.756 3.647 3.19 5.375 5.312l1.423 1.648A276.798 276.798 0 0 1 429 300l2.32 2.824c1.462 1.794 2.917 3.594 4.367 5.398 2.502 3.006 5.139 5.863 7.813 8.715 7.048 7.561 13.122 15.797 18.769 24.449 2.829 4.272 5.761 8.472 8.685 12.679a195.847 195.847 0 0 1 7.85 12.268c1.261 1.965 1.261 1.965 4.196 3.667 1.738 6.387-.008 11.737-3.188 17.312a362.795 362.795 0 0 1-3.438 5.493c-2.172 3.468-4.224 7.005-6.294 10.535a1855.235 1855.235 0 0 1-11.241 18.91 428.862 428.862 0 0 0-6.652 11.5c-3.48 6.176-7.274 12.099-11.207 17.996-2.023 3.323-3.478 6.67-4.98 10.254-1.631 2.879-3.287 5.075-6 7-6.267 1.437-11.371-.101-17-3-2.015-1.869-3.738-3.616-5.5-5.688l-1.43-1.622A566.974 566.974 0 0 1 402 454a4954.586 4954.586 0 0 0-3.75-4.25l-1.648-1.903a462.702 462.702 0 0 0-3.266-3.726c-6.017-6.801-11.743-13.842-17.378-20.961-9.967-12.531-20.126-25.287-34.958-32.16-.795-4.615-1.083-8.428 1.653-12.399a238.907 238.907 0 0 1 4.711-4.84c2.911-3.049 5.295-6.247 7.699-9.699l1.273-1.824 2.489-3.575c1.689-2.389 3.471-4.707 5.238-7.038 4.98-6.818 8.888-14.235 12.937-21.625 4.399-7.968 9.098-15.071 15-22l3-3.559a3930.921 3930.921 0 0 1 4.7-5.533C409.816 287.13 409.816 287.13 418 288Z"/><path fill="#198685" d="M247 961c2.804 1.105 2.804 1.105 5 3 1.929 4.845 2.316 9.509 2.562 14.687.125 4.605.125 4.605.951 9.104.667 3.027.56 5.876.514 8.974l-.041 4.101-.026 2.167c-.136 12.893.273 25.555 1.532 38.396.652 6.705.928 13.421 1.165 20.152.043 4.347.043 4.347 1.343 8.419.03 2.828-.068 5.642-.161 8.468-.109 2.703-.109 2.703 2.161 4.532 1.39 5.424 1.536 11.433 1 17-2 2-2 2-5.59 2.16-1.45-.023-2.899-.056-4.348-.098-5.604-.201-5.604-.201-11.062.938-7.014.226-7.014.226-10.21-.508-4.592-.811-9.195-.532-13.844-.453-4.624.047-9.067-.226-13.655-.794-3.192-.342-6.378-.433-9.585-.536-23.097-.779-23.097-.779-30.706-8.709-1.781-2.375-3.276-4.864-4.75-7.438l-1.167-1.947c-4.542-7.739-5.268-13.801-5.02-22.678.121-7.739-.188-15.012-1.563-22.625-1.588-9.311-1.895-18.574-1.976-27.999a480.015 480.015 0 0 0-.072-4.947c-.199-11.042.51-19.465 7.943-28.171 4.967-4.253 9.476-7.872 15.605-10.195l3.141-1.344c12.037-4.532 23.772-4.104 36.5-3.622 31.67-.458 31.67-.458 34.359-.034Z"/><path fill="#D5563D" d="m505.437 730.187 3.452.054c8.549.301 16.15 1.983 22.798 7.633 9.874 10.925 13.477 25.66 13.687 40l.043 2.126c-.047 4.988-.639 8.823-3.418 12.999-3.176 1.42-6.384 1.89-9.812 2.375l-2.698.457c-1.671.28-3.345.548-5.021.798-1.716.257-3.428.547-5.136.861-4.493.686-8.995 1.016-13.524 1.376a704.498 704.498 0 0 0-25.773 2.641c-118.08 13.951-118.08 13.951-144.098-3.57-5.178-5.179-4.008-14.489-4.125-21.375.149-11.381 1.449-22.777 9.868-31.254 5.313-3.82 11.665-4.859 18.003-5.919 1.614-.272 3.227-.558 4.838-.854 21.123-3.863 42.443-4.885 63.847-6.083 4.618-.262 9.221-.566 13.827-.996 20.901-1.847 42.279-1.797 63.242-1.269ZM786.375 527.5l2.839-.03c10.241-.089 19.419-.159 28.786 4.53l2.488 1.144C831.33 538.286 837.026 548.043 841 559c1.423 7.046 1.241 14.156 1.25 21.312l.005 2.209c.005 42.012.005 42.012-7.193 52.229-12.563 9.23-27.001 9.584-42.062 9.437l-3.887-.002c-5.198-.024-10.022-.094-15.113-1.185-3.242-.116-6.215-.161-9.398.49-2.615.512-5.065.697-7.727.791l-2.89.113-5.969.211-2.891.113-2.617.092c-2.569.194-4.994.633-7.508 1.19v-2h-3c-.09-3.73-.141-7.458-.187-11.188l-.076-3.08c-.063-6.887.612-13.388 1.709-20.162 2.118-13.421 2.264-26.916 2.571-40.476.108-4.755.223-9.509.352-14.263.068-2.514.127-5.028.177-7.542l.091-3.434.067-2.997c.329-3.175 1.189-5.874 2.296-8.858 15.775-3.593 31.262-4.44 47.375-4.5Z"/><path fill="#BF442C" d="M819.21 656.019c1.789 1.98 1.789 1.98 1.996 5.632-.111 1.43-.243 2.859-.395 4.285l-.174 2.17c-.293 3.397-.809 6.597-1.637 9.893-.3 3.365-.507 6.73-.719 10.102-.281 2.898-.281 2.898-1.281 4.898a96.506 96.506 0 0 0-.614 4.418l-.338 2.767-.361 3.002a443.346 443.346 0 0 1-3.75 24.625c-1.249 6.885-2.303 13.726-3 20.688-1.414 13.638-2.804 25.035-12.625 35.312-14.206 9.382-32.596 8.561-48.968 8.559-3 .004-5.998.041-8.997.078-1.92.006-3.841.01-5.762.012l-2.695.043c-4.158-.03-6.339-.164-9.952-2.393-2.313-2.519-2.564-3.486-2.438-6.861.232-5.221 1.24-10.178 2.295-15.286 1.202-6.177 1.682-12.314 2.08-18.589 1.155-17.855 3.209-35.614 5.229-53.388.609-5.365 1.18-10.731 1.712-16.104.227-2.149.455-4.297.684-6.446l.247-2.803c.444-3.929 1.018-6.265 3.167-9.646 4.538-2.924 8.648-2.986 13.961-3.238l3.347-.211c12.462-.715 24.956-.968 37.435-1.198l2.473-.049c1.522-.029 3.045-.056 4.568-.077 4.46-.087 8.831-.436 13.259-.98 7.647-.878 7.647-.878 11.253.785ZM138.5 684.687l2.211-.016c5.573.073 12.187.226 16.289 4.328.654 2.268.654 2.268 1.218 5.102l.634 3.153.648 3.37.67 3.413c1.474 7.66 2.654 15.292 3.47 23.048.269 2.973.269 2.973 1.36 5.914.13 1.853.229 3.707.312 5.563.312 4.66.986 8.957 2.136 13.461 5.025 19.727 3.74 40.758 3.552 60.976-3.955 1.447-7.426 2.269-11.625 2.5-4.112.283-8.074.749-12.125 1.5-17.964 3.064-35.977 2.746-52-7.125-7.787-6.189-10.237-15.045-11.437-24.5l-.475-3.307A725.724 725.724 0 0 1 82 771.999l-.376-2.964c-.479-3.804-.95-7.609-1.407-11.415-1.104-9.065-2.422-18.092-3.779-27.121l-.322-2.166c-1.263-8.944-1.263-8.944-3.268-17.74-1.01-4.284-1.03-8.219-.848-12.594 12.799-3.873 25.544-7.149 38.697-9.562 2.17-.413 4.323-.87 6.479-1.348 7.16-1.551 14.004-2.363 21.324-2.402Z"/><path fill="#D5563D" d="M133.687 566.062c3.08 2.58 4.471 5.075 5.312 8.937.15 3.16.127 6.265.008 9.426-.201 2.563-.201 2.563.992 4.574.24 1.403.438 2.814.613 4.227l.338 2.599.362 2.799c.865 6.388 1.865 12.582 3.562 18.813 2.08 7.814 3.472 15.719 4.813 23.687l.649 3.791c1.377 8.366 2.205 16.62 2.663 25.084l-1.819.288a7462.688 7462.688 0 0 0-19.411 3.105l-7.511 1.207c-26.819 2.808-26.819 2.808-52.258 10.4-6.882.674-13.033 1.061-18.73-3.223-3.738-5.232-3.562-11.741-3.708-17.902-.246-7.119-.959-13.976-2.125-21-1.296-8.23-1.824-16.358-1.937-24.687l-.092-3.308c-.004-7.054 1.191-11.366 5.592-16.88l1.379-1.889c13.657-18.343 44.648-26.933 66.153-30.299 10.637-1.535 10.637-1.535 15.155.251Z"/><path fill="#C0442C" d="M534.873 102.742c2.307.007 4.614.012 6.921.016 45.965.086 91.931 1.229 137.83 3.741l3.347.181c35.095 1.935 35.095 1.935 42.899 7.702 2.041 2.924 1.289 5.779.824 9.16-.725 2.56-1.363 3.807-3.258 5.645-5.158 2.719-8.739 1.545-14.075.096-9.514-2.47-18.784-2.97-28.55-3.346-3.14-.128-6.279-.263-9.418-.41l-2.275-.106c-3.869-.208-7.542-.597-11.315-1.476-6.434-1.484-12.927-1.111-19.492-1.008-2.803.025-5.607.041-8.41.054l-2.092.012c-5.492.019-10.953-.148-16.435-.441-7.839-.417-15.673-.655-23.52-.817l-3.037-.063c-5.094-.103-10.189-.199-15.284-.29l-5.718-.112-2.637-.041c-3.802-.077-7.522-.235-11.293-.749-3.985-.503-7.886-.635-11.894-.624l-2.21-.002c-1.526-.001-3.054.001-4.582.005-2.326.005-4.651 0-6.977-.006-1.493 0-2.987.001-4.48.003l-2.084-.006c-4.003.02-7.722.466-11.658 1.139-2.817.189-5.623.345-8.442.465l-4.959.236c-2.571.119-5.142.236-7.713.349-9.067.403-17.934.943-26.895 2.475-5.116.812-10.266 1.158-15.429 1.538-2.061.155-4.123.312-6.184.472l-2.701.2c-2.705.23-2.705.23-5.456.781-4.065.611-8.039.658-12.143.695l-5.301.086c-2.744.041-5.488.078-8.232.105-12.479.131-24.298 1.204-36.545 3.598-6.965 1.268-13.467 2.08-20.563 1.938-8.816-.174-17.252 1.179-25.925 2.648-2.42.399-4.842.76-7.27 1.106-8.29 1.199-16.318 2.779-24.43 4.871-8.728 2.227-17.261 3.172-26.237 3.77-5.523.377-10.733.975-16.138 2.167-8.513 1.779-17.084 2.133-25.748 2.615-8.958.505-17.752 1.281-26.6 2.784-6.081 1.018-12.13 1.529-18.277 1.976-7.76.587-14.831 1.876-22.184 4.449-4.815 1.653-8.601 2.04-13.628 1.676-2.432-1.87-3.641-3.281-5-6-.168-1.875-.168-1.875-.188-4l-.043-2.125c.231-1.875.231-1.875 2.231-3.875 2.18-.62 4.389-1.144 6.605-1.621l2.021-.438c2.185-.469 4.372-.925 6.561-1.378l2.272-.475c16.218-3.37 32.228-5.804 48.791-6.642 16.543-.848 32.882-2.65 49.312-4.758l3.451-.433c13.824-1.745 27.385-3.99 40.963-7.132 7.934-1.824 15.963-3.015 24.024-4.123l2.767-.382c14.062-1.913 28.128-3.286 42.275-4.379 2.926-.236 5.848-.498 8.77-.77 9.356-.868 18.671-1.578 28.063-1.906 17.626-.646 35.529-1.936 52.959-4.721 9.706-1.543 19.389-2.366 29.197-2.916l2.303-.131c16.183-.904 32.335-1.112 48.539-1.052Z"/><path fill="#242323" d="M418 288c2.176 1.756 3.647 3.19 5.375 5.312l1.423 1.648A276.798 276.798 0 0 1 429 300l2.32 2.824c1.462 1.794 2.917 3.594 4.367 5.398 2.502 3.006 5.139 5.863 7.813 8.715 7.048 7.561 13.122 15.797 18.769 24.449 2.829 4.272 5.761 8.472 8.685 12.679a195.847 195.847 0 0 1 7.85 12.268c1.261 1.965 1.261 1.965 4.196 3.667 1.738 6.387-.008 11.737-3.188 17.312a362.795 362.795 0 0 1-3.438 5.493c-2.172 3.468-4.224 7.005-6.294 10.535a1855.235 1855.235 0 0 1-11.241 18.91 428.862 428.862 0 0 0-6.652 11.5c-3.48 6.176-7.274 12.099-11.207 17.996-2.023 3.323-3.478 6.67-4.98 10.254-1.631 2.879-3.287 5.075-6 7-6.267 1.437-11.371-.101-17-3-2.015-1.869-3.738-3.616-5.5-5.688l-1.43-1.622A566.974 566.974 0 0 1 402 454a4954.586 4954.586 0 0 0-3.75-4.25l-1.648-1.903a462.702 462.702 0 0 0-3.266-3.726c-6.017-6.801-11.743-13.842-17.378-20.961-9.967-12.531-20.126-25.287-34.958-32.16-.795-4.615-1.083-8.428 1.653-12.399a238.907 238.907 0 0 1 4.711-4.84c2.911-3.049 5.295-6.247 7.699-9.699l1.273-1.824 2.489-3.575c1.689-2.389 3.471-4.707 5.238-7.038 4.98-6.818 8.888-14.235 12.937-21.625 4.399-7.968 9.098-15.071 15-22l3-3.559a3930.921 3930.921 0 0 1 4.7-5.533C409.816 287.13 409.816 287.13 418 288Zm-7.164 20.949c-9.353 10.407-16.621 21.574-23.457 33.742-3.779 6.584-8.158 12.487-12.871 18.425-3.691 4.686-6.742 9.398-9.359 14.782-1.155 2.113-2.446 3.429-4.149 5.102 0 2.938.995 3.994 3 6.125.447.418.893.837 1.352 1.269 3.76 3.662 7.16 7.687 10.648 11.606l1.75 1.933c3.734 4.173 7.192 8.523 10.625 12.942 4.632 5.949 9.49 11.6 14.625 17.125 1.857 1.997 3.712 3.997 5.563 6l1.406 1.517c3.671 3.997 7.025 8.18 10.277 12.522 1.824 2.04 3.305 2.824 5.754 3.961 5.016-6.922 9.498-14.026 13.75-21.438l1.828-3.166c1.226-2.123 2.451-4.247 3.674-6.373 1.593-2.756 3.201-5.503 4.818-8.246A411.062 411.062 0 0 0 466 387l1-2c.323-11.999-6.259-20.699-13-30-.89-1.27-1.776-2.541-2.661-3.813-15.356-24.31-15.356-24.31-35.339-44.187-3.113-.335-3.113-.335-5.164 1.949Z"/><path fill="#D4563D" d="m236 637 6 3c1.961-.048 1.961-.048 4.175-.34l2.51-.284 2.627-.314c10.387-1.213 10.387-1.213 14.688-1.062v2l4 1 .259 1.696c.39 2.539.784 5.078 1.178 7.616l.408 2.67.401 2.568.365 2.365c.373 2.267.373 2.267 1.389 5.085.113 1.48.176 2.964.205 4.448l.06 2.724.051 2.945.063 3.055c.043 2.14.084 4.28.123 6.42.059 3.235.124 6.47.191 9.704.337 16.883.337 16.883.283 24.793-.021 4.408.156 8.772.418 13.172l.205 3.701c.143 2.496.304 4.991.484 7.485.406 8.059-.383 13.848-5.083 20.553-2.931 2.692-5.203 3.174-9.063 3.375-4.054-.387-4.996-.84-7.937-3.375l-2.45-.286C249 761 249 761 247.523 758.875c-3.018-7.555-4.643-14.893-5.848-22.895-.585-3.763-1.584-7.331-2.675-10.98-2.198-8.803-2.162-17.512-2.015-26.522l.042-2.795.054-2.514c.013-2.353.013-2.353-1.081-5.169a96.014 96.014 0 0 1-.221-4.915l-.07-3.023-.06-3.258-.07-3.343c-.048-2.332-.093-4.663-.136-6.995-.067-3.584-.145-7.168-.224-10.752l-.133-6.785a2800.93 2800.93 0 0 0-.072-3.27l-.051-3.004-.052-2.657C235 638 235 638 236 637Z"/><path fill="#D5563D" d="M619 496c.416 2.426.416 2.426.476 5.453l.094 3.316.055 3.481c.051 2.255.105 4.51.164 6.765l.053 3.04c.163 3.048.628 5.941 1.158 8.945.394 3.597.659 7.204.937 10.812l.26 3.336c.544 7.358.962 14.716 1.306 22.086l.127 2.699c.205 4.436.401 8.873.584 13.31.378 8.738 1.005 17.356 2.112 26.034.643 5.127.928 10.124.799 15.285l-.028 2.225A567.11 567.11 0 0 1 627 628a178.996 178.996 0 0 1-19 1.187l-3.812.043C601 629 601 629 598 627c-.444-1.919-.444-1.919-.554-4.329l-.166-2.805-.155-3.116c-.723-11.377-2.075-22.587-3.625-33.875-3.293-24.222-5.441-48.416-5.687-72.875l-.04-2.23c-.012-7.442-.012-7.442 2.227-10.77 3.09-1.144 3.09-1.144 6.938-1.812l2.028-.354C613.66 492.44 613.66 492.44 619 496Z"/><path fill="#D4563D" d="M225 507c3.312-.058 6.624-.093 9.937-.125l2.807-.05c5.959-.042 11.543.367 17.256 2.175 1.633 1.633 1.419 3.616 1.683 5.871l.369 3.143.385 3.423.402 3.501c1.055 9.461 1.832 18.93 2.426 28.43.391 5.81 1.215 11.017 2.735 16.632 2.292 13.889 2.583 27.955 3 42-8.158 3.68-16.994 6.068-26 5-4.158-2.682-5.69-3.73-6.878-8.593a108.802 108.802 0 0 1-.189-4.197l-.135-2.314a370.758 370.758 0 0 1-.248-4.943c-.193-4.4-.48-8.793-.765-13.188l-.172-2.72c-.704-10.447-2.254-20.749-3.901-31.083-2.249-14.3-2.918-28.49-2.712-42.962Z"/><path fill="#D45840" d="m618.621 654.832 2.316-.082 2.027-.078c2.958.476 4.665 1.496 7.035 3.327.612 2.758.612 2.758.602 6.125l.041 3.788-.009 2.016c-.014 3.533.052 7.063.12 10.595l.038 2.175c.151 6.703.898 13.282 1.771 19.926 5.292 42.202 5.292 42.202-.563 57.375-5.642 4.593-10.498 5.434-17.585 5.34-2.414-.34-2.414-.34-5.476-2.402-2.29-3.471-2.648-5.815-2.938-9.938a314.397 314.397 0 0 0-1.511-8.665c-.568-3.879-.717-7.715-.805-11.627l-.063-2.384c-.043-1.66-.084-3.32-.123-4.98-.06-2.506-.125-5.012-.191-7.517-.17-6.649-.336-13.285-.244-19.936.022-4.777-.586-9.272-1.5-13.953l-.408-2.256c-.709-3.956-.709-3.956-2.155-7.682-.168-2.058-.168-2.058-.187-4.437l-.043-2.371c.23-2.192.23-2.192 2.23-5.192h2l-.062-2.437c.062-2.563.062-2.563 1.062-3.563 4.85-.637 9.742-.855 14.621-1.167Z"/><path fill="#010101" d="M393.892 882.999c7.537 1.055 14.959 1.291 22.572 1.266l3.99.006c2.763.003 5.525-.001 8.287-.011 3.49-.011 6.98-.004 10.471.007 13.751.039 27.175-.193 40.787-2.267a102.8 102.8 0 0 1 9-.375l2.143.001c6.632.146 11.109 1.626 15.857 6.373.636 5.64.636 5.64 0 8-2.2 2.538-4.037 3.843-7.383 4.389-3.061.173-6.102.217-9.168.221l-3.488.05c-3.758.05-7.515.071-11.274.09l-7.752.084c-6.444.067-12.888.11-19.333.144-4.356.027-8.712.071-13.069.116-3.668.035-7.336.06-11.005.08-1.669.009-3.337.021-5.006.036-8.115.062-15.628-.08-23.522-2.21a93.928 93.928 0 0 0-4.999-.375c-5.063-.45-9.758-1.745-14-4.625-1.784-2.744-2.014-3.778-1.813-7.125 2.254-7.975 12.462-4.808 18.705-3.875Z"/><path fill="#F3EDEC" d="M581 79v1c-14.803 1.009-29.614 1.316-44.446 1.6-4.403.084-8.807.175-13.21.266-12.508.26-25.015.513-37.522.756-6.941.135-13.882.275-20.823.423-4.361.092-8.722.177-13.084.257-3.368.063-6.736.138-10.105.211l-3.576.058c-7.331.173-14.467.888-21.711 1.975-6.154.793-12.325.839-18.523.954-9.028.216-18.007.548-27 1.437-10.507 1.037-21.019 1.558-31.562 2.063-18.918.914-37.684 2.242-56.438 5l-2.399.348c-2.617.38-5.234.765-7.851 1.152l-2.436.359c-4.25.639-8.466 1.361-12.685 2.183-5.8 1.07-11.56 1.432-17.441 1.77-12.524.833-24.732 2.768-37.074 4.969-6.241 1.106-12.497 1.964-18.781 2.776-6.501.863-12.913 2.116-19.333 3.443l-2.004.396c-19.695 3.978-35.974 12.679-47.298 29.613-3.302 5.136-5.926 10.125-7.698 15.991l-.972 2.839c-5.906 18.525-7.556 38.579-9.66 57.83a948.657 948.657 0 0 1-.77 6.754c-2.465 21.037-3.209 41.919-3.492 63.082-.076 5.68-.17 11.36-.27 17.04-.142 8.097-.274 16.193-.396 24.29-.069 4.563-.141 9.125-.221 13.687-.521 30.042-.296 58.258 9.094 87.103l1.112 3.433c2.579 7.681 5.797 14.78 9.575 21.942a596.287 596.287 0 0 1 2 4c-3.98-3.623-6.531-7.261-8.875-12.125l-1.024-2.105c-16.247-34.178-16.373-69.34-15.766-106.403.055-3.367.106-6.734.157-10.101.125-8.246.26-16.493.4-24.739.076-4.506.146-9.012.21-13.518.443-31.188 2.075-62.252 6.494-93.158.281-1.979.551-3.959.813-5.941 2.398-18.06 5.386-37.934 16.591-52.91l1.872-2.563c13.553-17.754 32.008-24.255 53.316-28.437l1.995-.397a435.85 435.85 0 0 1 30.888-4.955c3.838-.483 7.624-1.111 11.427-1.818 9.612-1.777 19.209-2.498 28.968-3.008 6.991-.408 13.768-1.312 20.644-2.591 9.705-1.787 19.479-3.049 29.265-4.294l3.129-.4c19.547-2.465 39.009-3.579 58.687-4.261 6.439-.233 12.835-.7 19.247-1.339 9.653-.961 19.294-1.334 28.99-1.596l3.377-.095 2.968-.073c2.546-.137 5.014-.368 7.542-.671 4.621-.536 9.201-.703 13.85-.784l2.534-.056c3.535-.077 7.07-.146 10.605-.215 2.6-.052 5.199-.109 7.798-.166l2.39-.041c3.374-.075 6.571-.25 9.915-.754 4.686-.634 9.27-.59 13.992-.549l6.27.025 3.315.019c17.764.096 35.509.02 53.266-.481l2.547-.072 2.504-.071 4.836-.135 2.32-.064c9.847-.262 19.694-.254 29.543-.158Z"/><path fill="#252423" d="M91.5 710.437c4.054.651 5.659 1.64 8.5 4.562 2.088 3.397 2.604 6.741 3.218 10.652l.312 1.964c.331 2.106.651 4.214.97 6.322l.336 2.178c1.488 9.629 2.697 19.23 3.493 28.944.924 12.334.924 12.334 4.671 23.94.406 5.792.698 11.732-2 17-2.828 3.07-4.337 3.917-8.5 4.438-3.94-.493-5.541-.792-8.5-3.438-.943-3.378-1.115-6.759-1.313-10.25l-.221-2.816c-.282-3.799-.475-7.53-.392-11.34-.111-5.364-1.075-10.558-1.949-15.844-1.291-8.031-2.444-16.025-3.187-24.125-.575-6.226-1.557-12.066-3.352-18.082-.682-2.963-.814-5.512-.586-8.543 2.615-3.644 4.043-4.846 8.5-5.562Z"/><path fill="#242322" d="M789 682c2.73 1.542 2.73 1.542 5 4 .491 2.775.613 4.855.5 7.625l-.045 2.408c-.311 10.31-1.374 20.61-2.387 30.871-1.448 14.171-1.448 14.171-.131 28.283.369 3.123.286 4.42-1.289 7.18-2.907 3.477-5.048 5.888-9.648 6.633-5.794-6.481-8.666-11.599-8.332-20.333l.049-2.456c.065-2.739.17-5.474.283-8.211l.12-3.02a1094.2 1094.2 0 0 1 .997-19.501c.199-3.398.376-6.796.553-10.194l.381-6.528.152-3.055c.56-8.795.56-8.795 3.797-12.702 3.149-1.574 6.593-1.669 10-1Z"/><path fill="#242424" d="M450 757c4.318 1.461 8.044 3.48 11 7 3.098 6.321 5.253 12.948 4 20-1.188 3.312-1.188 3.312-4 6-7.821 3.406-15.924 5.791-24.187 2.875-6.577-4.385-10.747-11.225-12.5-18.875 1.579-6.889 8.276-11.847 13.687-16 3.723-1.861 7.939-1.438 12-1Z"/><path fill="#232323" d="M398 352c3.669 1.417 4.744 2.498 6.539 6.019 1.797 4.418 2.452 8.901 3.086 13.606l.373 2.666c3.287 24.07 3.287 24.07-2.123 31.709-4.003 2.784-6.065 2.543-10.875 2-3-2-3-2-3.695-3.922-1.473-8.172-2.004-16.342-2.515-24.621-.412-6.071-1.111-11.608-2.79-17.457-.437-2.688-.437-2.688 0-5 3.539-4.826 6.102-5.842 12-5ZM428.683 351.335c3.549 1.017 5.027 2.802 7.316 5.664.965 2.668 1.672 5.008 2.25 7.75l.493 2.178c1.813 8.223 2.348 15.99 2.444 24.384l.04 2.394c.01 7.171.01 7.171-2.227 10.294-2.994 2.48-4.584 2.992-8.5 3.062-3.542-1.075-5.157-2.118-7.433-5.009-2.264-4.36-2.057-9.359-2.254-14.178-.113-2.149-.231-4.298-.355-6.446l-.185-3.216c-.356-4.207-1.067-8.311-1.863-12.455-.647-4.36-.968-7.642 1.028-11.633 3.224-2.674 5.175-2.719 9.246-2.789Z"/><path fill="#DAD0CE" d="m566.812 497.937 3.519.027 2.668.035v2c-11.225 1.796-22.348 2.344-33.709 2.57l-3.458.086-3.04.057c-3.37.255-6.573.729-9.903 1.287-6.682 1.062-13.195 1.312-19.952 1.344l-3.617.044c-5.042.062-10.085.102-15.128.144-3.71.034-7.42.079-11.13.124l-3.385.016c-6.704.084-13.095.714-19.7 1.88-4.987.751-9.945.701-14.977.636l-3.163-.02c-6.383-.064-12.68-.352-19.036-.941-6.828-.553-13.603-.385-20.414.285-7.183.622-14.303.516-21.504.361-5.207-.056-10.224.126-15.387.841-15.14 2.059-30.473 1.51-45.718 1.423-4.043-.02-8.086-.029-12.13-.039a9322.64 9322.64 0 0 1-23.648-.098c.438 12.263 1.187 24.292 3 36.438 1.237 8.477 2.242 16.878 2.79 25.43.26 3.879.677 7.71 1.147 11.57l.256 2.111c.874 7.158 1.829 14.306 2.807 21.451l-3-1c-1.867-5.756-2.484-11.494-3-17.5-.165-1.779-.332-3.557-.5-5.336l-.25-2.651c-.483-4.851-1.126-9.679-1.75-14.513-.655-5.138-1.196-10.287-1.748-15.437a271.292 271.292 0 0 0-1.815-13.375c-1.399-9.332-1.605-18.77-1.937-28.188 4.63-1.801 8.456-2.24 13.411-2.211l2.17.004c2.351.006 4.701.027 7.052.047l4.923.016c4.309.013 8.617.037 12.926.065 6.904.043 13.807.073 20.711.096 2.408.01 4.817.027 7.225.045l4.43.02 3.902.025c2.668-.088 4.721-.362 7.25-1.107 1.952-.148 3.907-.247 5.863-.316l3.58-.128 3.869-.118 1.994-.064c19.336-.603 38.686-.841 58.006.251 7.432.41 14.488.252 21.862-.765a180.802 180.802 0 0 1 15.502-1.403l2.462-.125c10.858-.517 21.729-.656 32.598-.809 11.679-.17 23.183-.741 34.792-2.05 5.717-.638 11.444-.936 17.187-1.227 3.175-.166 3.175-.166 5.801-.769 3.134-.601 6.107-.571 9.296-.539Z"/><path fill="#E3D5D2" d="M581 79v1c-14.803 1.009-29.614 1.316-44.446 1.6-4.403.084-8.807.175-13.21.266-12.508.26-25.015.513-37.522.756-6.941.135-13.882.275-20.823.423-4.361.092-8.722.177-13.084.257-3.368.063-6.736.138-10.105.211l-3.576.058c-7.331.173-14.467.888-21.711 1.975-6.154.793-12.325.839-18.523.954-9.028.216-18.007.548-27 1.437-10.507 1.037-21.019 1.558-31.562 2.063-18.918.914-37.684 2.242-56.438 5l-2.399.348c-2.617.38-5.234.765-7.851 1.152l-2.436.359c-4.25.639-8.466 1.361-12.685 2.183-5.8 1.07-11.56 1.432-17.441 1.77-12.524.833-24.732 2.768-37.074 4.969-6.232 1.105-12.479 1.957-18.755 2.767-3.925.528-7.784 1.196-11.671 1.952l-1.994.384c-1.899.367-3.796.741-5.694 1.116l-3.23.636c-2.258.449-4.514.903-6.77 1.364l-1-3c15.64-3.273 31.206-6.375 47.071-8.352 3.838-.483 7.624-1.111 11.427-1.818 9.612-1.777 19.209-2.498 28.968-3.008 6.991-.408 13.768-1.312 20.644-2.591 9.705-1.787 19.479-3.049 29.265-4.294l3.129-.4c19.547-2.465 39.009-3.579 58.687-4.261 6.439-.233 12.835-.7 19.247-1.339 9.653-.961 19.294-1.334 28.99-1.596l3.377-.095 2.968-.073c2.546-.137 5.014-.368 7.542-.671 4.621-.536 9.201-.703 13.85-.784l2.534-.056c3.535-.077 7.07-.146 10.605-.215 2.6-.052 5.199-.109 7.798-.166l2.39-.041c3.374-.075 6.571-.25 9.915-.754 4.686-.634 9.27-.59 13.992-.549l6.27.025 3.315.019c17.764.096 35.509.02 53.266-.481l2.547-.072 2.504-.071 4.836-.135 2.32-.064c9.847-.262 19.694-.254 29.543-.158Z"/><path fill="#E5E0DF" d="M554 747c7.39 7.39 6.185 27.058 6.25 37l.027 2.315c-.036 6.661-.456 15.713-5.277 20.685-3.295 1.011-6.583 1.57-10 2-.414 13.307-.414 13.307 1.5 26.437 5.057 22.526 4.112 57.284-8.25 77.063-3.56 4.923-7.412 8.848-12.25 12.5l-2.687 2.312c-9.757 4.971-21.55 3.861-32.202 3.702l-3.122-.042-2.765-.054c-2.647.067-5.178.268-7.806.554-6.023.636-12.038.819-18.089.992l-7.395.237c-3.823.118-7.647.235-11.47.348-14.335.43-28.568 1.052-42.837 2.526-13.908 1.388-27.636.92-40.627-4.575 3.99-1.33 5.993-.183 10 1 11.879 2.159 28.223 2.603 39.938-.516 4.107-.964 8.483-.518 12.687-.445l2.211.023 1.986.035c2.267-.051 2.267-.051 4.812-.584 4.473-.682 8.882-.728 13.402-.795l2.897-.056c4.074-.078 8.147-.146 12.221-.215 2.982-.052 5.963-.109 8.944-.166l2.781-.041c4.186-.082 8.021-.343 12.121-1.24 1.76-.057 3.522-.063 5.282-.028l3.032.043 3.186.047c20.014.092 20.014.092 37.068-9.635 17.383-17.323 15.602-46.351 15.695-69.045-.066-6.91-.987-13.007-2.591-19.73-1.165-6.338-2.62-16.756.328-22.652 1.926-.422 1.926-.422 4.313-.75 3.638-.752 4.513-1.067 7.187-3.875 2.968-6.68 2.658-13.992 2.625-21.188l.011-2.561-.004-2.459-.003-2.21c-.061-2.173-.061-2.173-1.129-4.957a216.97 216.97 0 0 1-.5-6.688c-.336-5.142-.786-10.211-1.5-15.312Z"/><path fill="#F5E7E4" d="m172 673 2 1c.654 2.816.654 2.816 1.218 6.562l.314 2.016c.331 2.139.65 4.28.968 6.422.422 2.792.851 5.583 1.281 8.375l.313 2.059c.531 3.428 1.152 6.788 1.999 10.151 1.765 7.465 1.704 15.3 2.117 22.93.37 6.159.963 11.57 2.79 17.485.66 3.92 1.085 7.859 1.5 11.812l.39 3.683c1.502 15.126 1.87 30.336 2.287 45.523.478 15.863 1.4 31.734 6.823 46.794 1.822 5.391 3.416 10.65 4.5 16.25 1.409 7.157 3.706 13.904 6.089 20.781 1.132 3.273 2.09 6.557 2.973 9.907 1.258 4.379 3.273 6.999 6.438 10.25l-1 2a413.318 413.318 0 0 1-3.313-4.063l-1.863-2.285c-3.727-5.419-5.498-11.519-7.262-17.777-.434-1.511-.869-3.022-1.305-4.532l-.643-2.238c-.853-2.923-1.764-5.826-2.677-8.73-1.809-5.833-3.39-11.712-4.93-17.622-.969-3.611-2.044-7.177-3.132-10.753-3.957-13.986-4.284-28.211-4.766-42.649-.185-5.453-.398-10.904-.613-16.355l-.126-3.201c-.317-7.879-.708-15.744-1.308-23.608l-.189-2.732c-.387-4.611-1.19-8.88-2.385-13.354-1.575-5.992-2.055-11.744-2.363-17.914-.659-10.512-1.98-20.805-3.688-31.187l-.34-2.085c-.873-7.159-.873-7.159-3.097-13.915-.187-2.691-.085-5.297 0-8l1-1Z"/><path fill="#F5E8E6" d="M725 456v3c-6.259 3.608-12.311 6.915-19.187 9.187-7.148 2.391-13.822 5.581-20.625 8.813-9.924 4.67-19.531 8.458-30.188 11l-4.707 1.175C638.779 492 638.779 492 635 492l.203 1.674a221.328 221.328 0 0 1 1.262 15.708l.233 4.747.118 2.469c.807 16.814.807 16.814 2.184 33.589 1.321 13.351 1.75 26.767 2.303 40.167l.119 2.785c.074 1.737.144 3.475.211 5.212.184 4.3.601 8.405 1.367 12.649.066 2.29.086 4.583.063 6.875l-.027 3.492L643 624h-2l-.402-3.106-.535-4.082a3446.4 3446.4 0 0 0-.264-2.041c-.361-2.745-.733-5.465-1.311-8.174-.501-2.67-.704-5.214-.829-7.927l-.153-3.184-.154-3.447-.354-7.434-.278-5.958c-.287-6.122-.586-12.244-.887-18.366l-.103-2.075c-.775-15.68-1.761-31.345-2.815-47.009l-.187-2.796c-.113-1.696-.229-3.392-.347-5.088-.277-4.114-.438-8.187-.381-12.313 5.078-2.363 9.834-3.741 15.313-4.813 15.045-3.201 28.477-8.341 42.267-15.145a175.164 175.164 0 0 1 19.31-8.104C714.14 461.059 719.637 456 725 456Z"/><path fill="#F4F1F1" d="M296 612c5.874 5.723 5.874 5.723 6.375 10.812-.066 3.304-.316 4.103-2.313 6.938-3.79 2.784-7.696 4.547-12.062 6.25-.195 6.674-.183 13.157.713 19.778 1.934 14.691 1.551 29.52 1.483 44.305-.011 2.978-.01 5.957-.01 8.935 0 2.916-.006 5.833-.013 8.749-.004 2.024-.006 4.047-.008 6.071-.056 11.004-.194 22.089-2.645 32.861a69.91 69.91 0 0 0-.883 4.633c-1.014 6.015-3.225 10.392-7.637 14.668-5.464 3.636-10.714 5.148-17.25 5.062l-2.703-.027L257 781v-1l2.344-.481c7.934-1.777 14.576-3.614 19.742-10.164 2.228-3.906 3.185-7.353 4.039-11.73l.5-2.517c3.163-16.933 3.559-33.995 3.625-51.171l.017-2.364c.048-9.251-.389-18.191-1.777-27.343-2.019-13.322-1.596-26.796-1.49-40.23 1.79-.838 3.582-1.671 5.375-2.5l3.024-1.407C295 629 295 629 297 629c1.665-4.997 1.634-10.058 0-15.063L296 612Z"/><path fill="#EFE9E8" d="M816 655v2c-3.068.881-5.89 1.167-9.077 1.265l-3.07.101-3.317.098-7.057.237c-3.681.118-7.362.234-11.043.348-12.203.383-24.396.797-36.564 1.829l-2.657.201c-2.656.216-2.656.216-6.215.921-2.309 3.464-2.551 6.231-2.937 10.25-.164 1.545-.329 3.091-.496 4.636l-.269 2.509c-.412 3.608-.91 7.201-1.405 10.798-1.604 11.726-2.69 23.446-3.611 35.242a3127.668 3127.668 0 0 1-1.588 19.335c-.128 1.514-.253 3.028-.375 4.543-.173 2.137-.354 4.273-.537 6.409l-.311 3.743c-.488 3.664-1.423 6.994-2.471 10.535a76.486 76.486 0 0 0-.632 4.839l-.254 2.53-.239 2.568-.261 2.65c-.21 2.137-.413 4.275-.614 6.413l-3-1c-.356-6.225.078-11.899 1.375-18 1.422-6.863 2.058-13.636 2.5-20.625 1.156-17.855 3.21-35.615 5.23-53.389.609-5.365 1.18-10.731 1.712-16.104l.683-6.445.248-2.803c.443-3.929 1.018-6.265 3.167-9.646 4.538-2.924 8.648-2.987 13.96-3.238l3.348-.211c12.462-.716 24.956-.969 37.435-1.199l2.473-.049c1.522-.029 3.045-.055 4.568-.077 4.47-.087 8.846-.442 13.284-.998 2.678-.286 5.327-.284 8.017-.216Z"/><path fill="#ECF3F3" d="M732.964 932.015c2.125.11 4.25.186 6.377.257 10.354.422 10.354.422 12.658 2.727l-2.811-.048c-3.474-.051-6.947-.089-10.422-.117a612.384 612.384 0 0 1-4.492-.061c-8.017-.137-14.845-.173-22.274 3.226-2.844.371-2.844.371-5.5.437-7.616.465-24.003 2.066-29.5 7.563-1.586 13.701-1.129 27.642-1.098 41.406l.005 7.263c.003 6.319.013 12.638.024 18.958.011 6.469.015 12.939.02 19.408.011 12.655.028 25.31.049 37.965l-3-1c-1.237-19.33-1.154-38.663-1.13-58.023.005-4.669.002-9.339-.004-14.009-.004-3.665-.002-7.331 0-10.996.001-1.72 0-3.439-.002-5.159-.006-4.781.02-9.56.097-14.341.027-1.73.048-3.46.063-5.19.031-2.748.097-5.493.172-8.241l.015-2.563c.212-5.879.212-5.879 3.212-8.993 2.279-1.313 4.031-2.167 6.581-2.716l2.226-.492 2.332-.465 2.424-.515c5.375-1.099 10.636-1.657 16.116-1.93 2.971-.376 5.026-1.18 7.742-2.406 6.71-2.533 13.092-2.315 20.12-1.945Z"/><path fill="#E7DEDC" d="M524 810v2c-12.392 2.891-25.185 3.822-37.875 4.375-6.527.291-12.914 1.127-19.378 2.071-17.251 2.506-34.317 3.413-51.747 3.554l-2.563.022c-6.479.056-12.957.087-19.437.103l-2.673.008c-11.153.026-22.204-.281-33.327-1.133-1.082 16.439-1.511 32.902-1.995 49.367l-.342 11.406c-.224 7.409-.444 14.818-.663 22.227h-1c-.819-6.248-1.079-12.37-1.058-18.661l.005-2.509c.03-8.333.203-16.662.426-24.993.065-2.469.125-4.938.184-7.408.202-8.031.479-16.055.916-24.078l.113-2.205c.295-5.027.295-5.027 1.414-6.146 1.786-.133 1.786-.133 4.063-.125l2.223-.008c2.714.133 2.714.133 6.298.633 4.611.585 9.16.643 13.803.632l2.687.005c2.871.002 5.743-.004 8.614-.012l2.988-.007c6.775-.018 13.55-.059 20.324-.118l2.282-.019c16.205-.15 32.052-1.436 48.101-3.537 8.022-1.046 15.952-1.811 24.037-2.079 6.926-.273 13.715-1.266 20.556-2.35 4.395-.69 8.557-1.182 13.024-1.015Z"/><path fill="#EEE3E0" d="m505.687 730.312 3.554.104c5.247.214 9.86.482 14.758 2.583-3.695 1.236-6.887.886-10.738.551-11.147-.827-22.281-.579-33.449-.363l-3.486.064c-69.395-3.076-69.395-3.076-132.764 14.936-11.538 12.664-8.815 31.916-8.562 47.812-4.386-4.386-3.081-13.526-3.188-19.437.149-11.381 1.449-22.777 9.868-31.254 5.313-3.82 11.665-4.859 18.003-5.919 1.614-.272 3.227-.558 4.838-.854 21.123-3.863 42.443-4.885 63.847-6.083 4.618-.262 9.221-.566 13.827-.996 8.394-.742 16.822-.878 25.242-1.082l2.716-.066c11.855-.281 23.681-.377 35.534.004Z"/><path fill="#FBF8F8" d="m236 637 6 3c1.961-.048 1.961-.048 4.175-.34l2.51-.284 2.627-.314c10.387-1.213 10.387-1.213 14.688-1.062v2c-8.566 2.18-17.232 3.053-26 4-1.322 4.932-1.048 9.768-.915 14.824l.065 2.856c.046 1.986.095 3.972.146 5.958.078 3.048.146 6.096.211 9.145l.141 5.791.06 2.771.07 2.56.057 2.255c.06 1.935.06 1.935 1.165 3.84.06 1.527.06 3.057.027 4.585l-.042 2.804-.048 2.986c-.116 15.51 3.257 27.916 8.625 42.312 1.892 5.081 3.763 10.155 5.438 15.313h-5c-.628-1.228-1.252-2.458-1.875-3.688l-1.055-2.074c-2.479-5.184-3.673-9.972-4.57-15.613-.859-5.342-1.952-10.428-3.5-15.625-2.198-8.803-2.162-17.512-2.015-26.522l.042-2.795.054-2.514c.013-2.353.013-2.353-1.081-5.169a96.014 96.014 0 0 1-.221-4.915l-.07-3.023-.06-3.258-.07-3.343c-.048-2.332-.093-4.663-.136-6.995-.067-3.584-.145-7.168-.224-10.752l-.133-6.785a2800.93 2800.93 0 0 0-.072-3.27l-.051-3.004-.052-2.657C235 638 235 638 236 637Z"/><path fill="#F3EEED" d="m131 565 1 2-3.593.515A621.179 621.179 0 0 0 113 570l-2.083.357c-21.244 3.872-45.88 15.071-59.112 32.541-2.999 5.468-2.349 11.665-2.242 17.727l.033 3.92c.145 8.381.857 16.47 2.259 24.725C53.594 659.769 53.749 670.378 54 681c-2-1-2-1-3.097-3.993-1.136-4.36-1.234-8.648-1.34-13.132-.247-7.12-.959-13.977-2.125-21-1.296-8.23-1.824-16.359-1.938-24.688l-.092-3.307c-.003-7.054 1.191-11.367 5.592-16.88l1.379-1.889c13.658-18.343 44.649-26.933 66.153-30.301 4.192-.605 8.221-.938 12.468-.81Z"/><path fill="#F0EBEA" d="M142 493h3l.243 2.24c2.488 23.055 2.488 23.055 5.757 46.01a168.805 168.805 0 0 1 1.429 11.222l.227 2.423c.139 1.534.267 3.068.383 4.604.461 5.086 1.517 9.834 2.82 14.774 2.35 8.962 3.74 18.014 5.092 27.171.728 4.934 1.481 9.864 2.232 14.794l.455 2.996c1.696 11.084 3.614 22.127 5.584 33.165l.365 2.076c.321 1.82.647 3.639.973 5.458.394 2.746.528 5.299.44 8.067-3-2-3-2-3.669-3.993l-.419-2.484-.497-2.835-.501-3.099a2178.08 2178.08 0 0 1-.552-3.22c-.592-3.475-1.165-6.953-1.737-10.432l-1.21-7.158a1954.527 1954.527 0 0 1-6.807-43.322 288.02 288.02 0 0 0-4.297-22.819c-1.527-6.936-2.131-13.918-2.629-20.995-.293-4.025-.662-7.886-1.604-11.815-1.449-6.047-2.158-12.207-2.938-18.368-.266-2.089-.541-4.177-.816-6.265l-.52-4.047-.469-3.651c-.337-3.522-.393-6.961-.335-10.497Z"/><path fill="#F2EDEC" d="M152 686v1l-3.546-.028C131.944 687.15 87.407 688.593 75 701c.653 7.185 2.06 14.275 3.313 21.375 3.128 17.977 6.236 35.94 7.969 54.112.969 9.716 2.961 19.148 5.718 28.513-4.305-4.019-6.048-7.218-6.964-13.016l-.481-3.002-.492-3.232-.53-3.389c-1.263-8.229-2.324-16.474-3.315-24.739-1.106-9.065-2.423-18.093-3.78-27.122l-.322-2.167c-1.263-8.944-1.263-8.944-3.268-17.74-1.01-4.284-1.03-8.218-.848-12.593 12.799-3.873 25.544-7.15 38.697-9.563a213.29 213.29 0 0 0 6.479-1.348c11.163-2.414 23.585-3.837 34.824-1.089Z"/><path fill="#F2EBEA" d="M802 528v1l-2.17.028c-19.55.316-38.498 2.124-57.83 4.972-.95 3.238-1.166 6.227-1.249 9.596l-.092 3.415-.088 3.696-.223 7.849c-.113 4.098-.222 8.195-.322 12.293-.382 15.267-1.147 30.221-3.353 45.337-.835 5.74-1.207 11.455-1.36 17.251l-.104 2.865A788.227 788.227 0 0 0 735 643h-3a865.81 865.81 0 0 1-.187-10.688l-.076-2.936c-.065-6.755.634-13.13 1.709-19.775 2.115-13.432 2.264-26.937 2.571-40.507.108-4.755.223-9.509.352-14.263.068-2.514.127-5.028.177-7.542l.091-3.434.067-2.997c.329-3.175 1.189-5.874 2.296-8.858 21.027-4.563 41.611-4.439 63-4Z"/><path fill="#E8EEEE" d="M196 962v1l-2.132.48C178.02 967.225 165.913 971.448 156 985c-2.218 4.328-2.276 8.399-2.23 13.16l.001 2.381c.003 1.661.011 3.323.024 4.985.018 2.503.02 5.007.02 7.511-.4 14.689-.4 14.689 2.185 28.963.105 2.239.156 4.481.176 6.722l.073 4.072c.034 2.124.064 4.247.077 6.371.084 11.026 1.427 19.804 7.924 28.96l1.579 2.257L167 1092l-1 2c-13.271-17.976-13.271-17.976-12.992-27.805.19-9.802.234-19.216-1.508-28.883-1.588-9.311-1.895-18.574-1.976-27.999a480.015 480.015 0 0 0-.072-4.947c-.199-11.042.51-19.465 7.943-28.171 7.547-6.462 14.336-9.896 23.668-13.008l2.04-.702c4.815-1.519 8.075-1.507 12.897-.485Z"/><path fill="#F2ECEB" d="M661 633c3.045 2.379 3.927 3.558 4.562 7.437-.718 4.55-2.086 5.607-5.562 8.563-2.455 1.245-4.766 2.318-7.312 3.312l-1.955.799A439.798 439.798 0 0 1 646 655c-.379 5.664-.713 11.329-1 17l-.171 3.39c-.161 6.252.52 11.995 1.671 18.11 1.895 10.185 1.864 20.174 1.5 30.5l-.079 2.339c-.458 11.966-.458 11.966-2.921 15.661l-.151-2.153c-.234-3.262-.479-6.523-.724-9.785l-.238-3.385c-.37-4.852-.753-9.542-1.945-14.267-1.298-5.331-1.198-10.575-1.129-16.035l.022-3.271c.108-11.038.407-22.091 1.165-33.104l.112-2.12c.162-1.888.162-1.888.888-4.88 1.856-1.454 1.856-1.454 4.188-2.25l2.457-.918L652 649c5.062-2.267 5.062-2.267 9-6 .362-2.513.362-2.513.187-5.188l-.082-2.73L661 633Z"/><path fill="#EDE8E7" d="M615 494c-2.325 2.325-3.111 2.351-6.281 2.746l-2.551.349c-1.778.228-3.556.452-5.335.672l-2.551.354-2.342.294c-2.328.477-2.328.477-3.94 3.585a86.658 86.658 0 0 0-.187 7.625l.034 2.286c.353 20.551 1.751 40.792 4.091 61.214l.803 7.226c1.178 10.564 2.378 21.117 3.917 31.635.568 5.001.511 9.989.342 15.014h-3a944.03 944.03 0 0 0-.104-1.692c-.918-14.235-2.472-28.306-4.396-42.433-3.286-24.224-5.441-48.414-5.687-72.875l-.04-2.23c-.012-7.451-.012-7.451 2.227-10.77 3.125-1.145 3.125-1.145 7-1.813l2.03-.359c5.348-.883 10.568-1.171 15.97-.828Z"/><path fill="#E8EAEA" d="m331.687 965.937 3.011.027 2.301.035 1 2-2.195.113-2.93.2-2.882.175c-3.423.586-5.968 1.838-8.992 3.512-.192 14.139-.349 28.216.937 42.313 2.029 22.539 2.105 45.316 2.188 67.937l.014 2.573c-.01 3.848-.197 7.437-1.139 11.177h-3l.219-1.766c1.008-8.903 1.029-17.622.301-26.55-.556-7.528-.751-15.038-.909-22.581-.251-11.777-.682-23.486-1.674-35.228-.732-9.101-1.259-18.182-1.437-27.312l-.129-3.343c-.025-2.867.009-5.421.629-8.22 4.509-4.218 8.673-5.132 14.687-5.062Z"/><path fill="#F3EEED" d="m484 372 2 1c.302 5.849-.142 8.759-3 14l-.958 1.794c-6.234 11.625-13.032 22.891-19.94 34.123A364.335 364.335 0 0 0 455 435c-4.043 7.186-8.08 14.257-12.769 21.046-1.439 2.158-1.439 2.158-2.731 5.641-1.821 4.022-3.621 7.056-7.5 9.313-3.409.591-6.594.636-10 0l-2-2 1.977.027c5.242-.149 5.242-.149 9.883-2.336 3.269-3.648 5.124-7.64 6.965-12.133 1.944-4.23 4.513-8.065 6.988-12 2.253-3.617 4.318-7.327 6.375-11.058 3.554-6.42 7.354-12.658 11.25-18.875 5.159-8.236 9.993-16.598 14.637-25.133C480 384 480 384 482 381c.667-2.276.667-2.276 1.125-4.688l.508-2.449L484 372Z"/><path fill="#E0D5D3" d="m566.812 497.937 3.519.027 2.668.035v2c-11.225 1.796-22.348 2.344-33.709 2.57l-3.458.086-3.04.057c-3.37.255-6.573.729-9.903 1.287-6.682 1.062-13.195 1.312-19.952 1.344l-3.617.044c-5.042.062-10.085.102-15.128.144-3.71.034-7.42.079-11.13.124l-3.385.016c-6.704.084-13.095.714-19.7 1.88-4.987.751-9.945.701-14.977.636l-3.163-.02c-6.383-.064-12.68-.352-19.036-.941-7.97-.645-15.812-.196-23.754.55-5.014.367-10.023.303-15.047.223v-2c8.235-1.056 16.393-1.153 24.687-1.125l2.055.001c8.875.003 17.709.24 26.57.749 7.432.411 14.488.252 21.862-.765a180.802 180.802 0 0 1 15.502-1.403l2.462-.125c10.858-.517 21.729-.656 32.598-.809 11.679-.17 23.183-.741 34.792-2.05 5.717-.638 11.444-.936 17.187-1.227 3.175-.166 3.175-.166 5.801-.769 3.134-.601 6.107-.571 9.296-.539Z"/><path fill="#EDE4E2" d="M225 507c3.374-.029 6.749-.046 10.125-.062l2.882-.025c4.783-.017 9.29.082 13.993 1.087v1l-24 1c.416 19.024 2.85 37.606 5.386 56.436L234 571l.288 2.147c1.281 9.6 2.204 19.187 2.837 28.853l.261 3.828c.209 3.057.413 6.114.614 9.172-1.946-1.026-1.946-1.026-4-3a48.327 48.327 0 0 1-.872-7.594l-.143-2.324a590.49 590.49 0 0 1-.284-4.978c-.236-4.426-.537-8.847-.846-13.269l-.191-2.738c-.773-10.457-2.302-20.785-3.951-31.135-2.251-14.3-2.919-28.49-2.713-42.962Z"/><path fill="#EFEFEF" d="M416 307c-1.384 4.228-3.3 6.57-6.437 9.687-6.226 6.665-10.608 14.172-15.206 22.009-5.374 9.122-10.815 17.981-17.607 26.128-2.575 3.202-4.681 6.631-6.75 10.176-2.842 4.842-2.842 4.842-5 7a89.816 89.816 0 0 0-2 4l-2-2c.194-2.799 1.046-4.057 2.813-6.25 1.8-2.264 2.79-3.891 3.957-6.454 2.171-4.429 4.996-7.994 8.105-11.796 5.505-6.928 10.021-14.181 14.375-21.875 4.68-8.254 9.311-15.623 15.75-22.625l1.997-2.418C412.618 307 412.618 307 416 307Z"/><path fill="#EFE9E8" d="M187 779h1l.055 1.77c.197 6.183.411 12.366.634 18.548.081 2.295.157 4.59.23 6.886.552 17.425 1.115 35.039 7.081 51.608 1.822 5.391 3.416 10.65 4.5 16.25 1.409 7.157 3.706 13.904 6.089 20.781 1.132 3.273 2.09 6.557 2.973 9.907 1.258 4.379 3.273 6.999 6.438 10.25l-1 2a413.318 413.318 0 0 1-3.313-4.063l-1.863-2.285c-3.727-5.419-5.498-11.519-7.262-17.777-.434-1.511-.869-3.022-1.305-4.532l-.643-2.238c-.853-2.923-1.764-5.826-2.677-8.73-1.809-5.833-3.39-11.712-4.93-17.622-.969-3.611-2.044-7.177-3.132-10.753-6.425-22.666-3.921-46.762-2.875-70Z"/><path fill="#F1EAE9" d="M725 456v3c-6.259 3.608-12.311 6.915-19.187 9.187-7.148 2.391-13.822 5.581-20.625 8.813-9.924 4.67-19.531 8.458-30.188 11l-4.707 1.175C638.779 492 638.779 492 635 492l1 11h-2v12h-1l-1-24c7.855-3.367 7.855-3.367 10.989-3.958l2.11-.422 2.214-.433c15.045-3.201 28.477-8.341 42.267-15.145a175.164 175.164 0 0 1 19.31-8.104C714.14 461.059 719.637 456 725 456Z"/><path fill="#F9F6F5" d="M604 656c2.062.437 2.062.437 4 1l-2 3c-.291 2.059-.291 2.059-.231 4.316l.006 2.568.037 2.678.002 2.596c.028 4.131.189 8.173.686 12.275.812 7.454.686 14.957.685 22.446.002 2.642.02 5.284.039 7.925l.006 5.039.022 2.393c-.024 5.535-.024 5.535-2.252 7.764-2.43-7.293-2.029-15.239-1.915-22.848.456-16.988.456-16.988-4.085-33.152-.167-2.059-.167-2.059-.187-4.438l-.043-2.371C599 665 599 665 601 662h2l-.062-2.438C603 657 603 657 604 656Z"/><path fill="#EAEEEE" d="M593 949c-3.566 2.377-6.121 3.113-10.308 3.281l-2.514.113-2.615.106c-1.707.069-3.414.141-5.121.218l-2.291.092c-2.135.129-2.135.129-4.089.692-2.528.61-4.892.678-7.491.744l-3.16.099c-2.183.061-4.365.118-6.547.172-5.399.176-9.756.63-14.864 2.483a139.49 139.49 0 0 1-8.062.5c-4.952.16-9.695.603-14.578 1.464-9.939 1.601-20.002 1.725-30.047 2.098-3.031.116-6.061.233-9.092.357-1.873.076-3.746.147-5.619.214l-2.542.101-2.236.083c-1.921.083-1.921.083-3.824 1.183-2.207.07-4.416.084-6.625.062l-3.601-.027L445 963v-1l2.59-.403 3.348-.535 3.34-.527c2.627-.254 2.627-.254 3.722-1.535a345.17 345.17 0 0 1 8.813.062c9.12.089 18.155-.341 27.25-1l3.693-.263c4.537-.346 8.833-.687 13.244-1.799 1.455-.12 2.913-.2 4.372-.247l2.49-.099c1.713-.061 3.427-.119 5.14-.172l2.495-.104 2.255-.076c2.331-.219 2.331-.219 4.679-1.289 2.831-1.117 5.159-1.401 8.191-1.611l3.305-.239 3.511-.226 3.607-.252a786.86 786.86 0 0 1 26.326-1.344l2.571-.095 2.24-.073c3.734-.356 6.824-1.246 10.818-1.173Z"/><path fill="#F6F4F3" d="M581 79v1c-15.604 1.06-31.221 1.36-46.854 1.674-3.714.075-7.428.155-11.141.235-10.997.234-21.995.463-32.992.689-8.589.177-17.178.356-25.766.541-4.404.094-8.808.185-13.211.273-3.378.068-6.756.142-10.134.214l-3.663.07c-5.506.124-10.808.388-16.239 1.304-1.83.073-3.663.108-5.496.097l-2.939-.01-3.002-.025-3.084-.014c-2.493-.011-4.986-.028-7.479-.048v-1c15.503-1.936 30.976-2.376 46.579-2.658l2.52-.05a922.32 922.32 0 0 1 4.699-.078c3.267-.062 6.343-.236 9.582-.726 4.696-.634 9.287-.593 14.019-.551l6.27.025 3.315.019c17.764.096 35.509.02 53.266-.481l2.547-.072 2.504-.071 4.836-.135 2.32-.064c9.847-.262 19.694-.254 29.543-.158Z"/><path fill="#ECE0DD" d="M289 708h1c.257 36.662.257 36.662-2.48 48.699a69.91 69.91 0 0 0-.883 4.633c-1.014 6.015-3.225 10.392-7.637 14.668-5.464 3.636-10.714 5.148-17.25 5.062l-2.703-.027L257 781v-1l2.344-.481c7.933-1.777 14.564-3.617 19.742-10.152 2.254-3.965 3.182-7.489 4.039-11.93l.502-2.46c1.429-7.414 2.191-14.864 2.778-22.386l.201-2.568.161-2.284C287 726 287 726 288 725c.238-2.859.423-5.699.563-8.563l.131-2.443c.106-1.998.207-3.996.306-5.994Z"/><path fill="#E7D8D5" d="M554 747c7.39 7.39 6.185 27.058 6.25 37l.027 2.315c-.036 6.661-.456 15.713-5.277 20.685-3.295 1.011-6.583 1.57-10 2-.393 13.471-.393 13.471 1.563 26.75 1.797 7.701 1.356 14.451.437 22.25h-1l-.113-3.192c-.313-7.27-.824-14.188-2.449-21.308-1.593-7.235-3.915-19.545-.438-26.5 1.926-.422 1.926-.422 4.313-.75 3.638-.752 4.513-1.067 7.187-3.875 2.968-6.68 2.658-13.992 2.625-21.188l.011-2.561-.004-2.459-.003-2.21c-.061-2.173-.061-2.173-1.129-4.957a216.97 216.97 0 0 1-.5-6.688c-.336-5.142-.786-10.211-1.5-15.312Z"/><path fill="#F7F1F0" d="M457 760c4.89 2.05 6.63 5.429 9 10 2.314 5.842 2.75 11.785 2 18-1.937 3.872-4.048 5.19-7.938 6.75-7.351 2.392-14.325 3.433-21.812 1.062-3.385-1.888-5.679-3.93-8.25-6.812l1-2 4.395 3.808c3.783 2.808 8.118 2.691 12.605 2.192 8.373-1.507 8.373-1.507 14.855-6.391 2.254-5.138 1.861-9.473.09-14.754-1.715-4.197-3.427-8.078-5.945-11.855Z"/><path fill="#EEE7E5" d="M547 850h1c.592 52.915.592 52.915-16.085 70.156A80.219 80.219 0 0 1 526 925l-1.73 1.343c-1.582 1.157-1.582 1.157-4.27 2.657l-3-1c2.712-2.893 5.363-4.904 8.75-6.938 9.658-6.633 14.711-17.895 16.829-29.129 1.143-7.181 1.674-14.326 2.025-21.578.358-6.86 1.29-13.574 2.396-20.355Z"/><path fill="#E3E7E7" d="M196 962v1l-2.132.48C178.02 967.225 165.913 971.448 156 985c-1.889 3.725-2.225 6.657-2.125 10.812l.055 2.957.07 2.231h-1l-1 8h-1c-2.147-21.043-2.147-21.043 2.219-27.895 8.018-9.477 16.346-14.085 27.844-17.918l2.04-.702c4.815-1.519 8.075-1.507 12.897-.485Z"/><path fill="#EAF2F2" d="m331.687 965.937 3.011.027 2.301.035 1 2-2.195.113-2.93.2-2.882.175c-3.424.586-5.927 1.913-8.992 3.512-.158 24.017-.158 24.017 1 48h-2l-1 4c-1.226-13.791-2.232-27.592-2.5-41.437l-.129-3.334c-.025-2.87.008-5.426.629-8.229 4.509-4.218 8.673-5.132 14.687-5.062Z"/><path fill="#EEE3E1" d="M275 539h1c1.566 10.847 3.104 21.638 3.757 32.585.841 11.848 2.633 23.652 4.243 35.415l-3-1c-1.867-5.756-2.484-11.495-3-17.5-.166-1.782-.332-3.563-.5-5.344l-.25-2.653c-.351-3.511-.795-7.004-1.25-10.503a1189.536 1189.536 0 0 1-2.25-18.813l-.316-2.627-.262-2.455-.247-2.183C273 542 273 542 275 539Z"/><path fill="#EAE3E2" d="M96 711c3.859 1.24 5.197 3.585 7.09 7.039 1.412 3.045 1.934 6.034 2.464 9.339l.354 2.18c1.691 10.751 2.922 21.575 4.217 32.379.395 3.289.791 6.578 1.192 9.867.247 2.028.491 4.057.731 6.087l.335 2.745.289 2.415c.242 2.021.242 2.021 1.328 3.949.177 2.786.277 5.524.312 8.312l.088 2.303c.046 4.09-.089 5.916-2.42 9.427L110 809l-2-1 1.437-1.188c2.96-3.434 2.719-7.943 2.75-12.312l.043-2.782c-.091-2.7-.091-2.7-1.152-4.953-1.586-4.069-1.972-8.199-2.516-12.515l-.383-2.908c-.82-6.297-1.57-12.603-2.306-18.911-1.003-8.553-2.014-17.105-3.311-25.619l-.297-2.157c-.764-4.736-2.418-7.834-5.265-11.655l-1-2Z"/><path fill="#D5E2E1" d="M732.964 932.015c2.125.11 4.25.186 6.377.257 10.354.422 10.354.422 12.658 2.727l-2.811-.048c-3.474-.051-6.947-.089-10.422-.117a612.384 612.384 0 0 1-4.492-.061c-8.017-.137-14.845-.173-22.274 3.226-2.844.371-2.844.371-5.5.437-9.764.597-19.284 3.389-28.5 6.563l-3 1-1 5h-1c-.313-2.75-.313-2.75 0-6 3.983-4.148 8.131-5.105 13.562-6.188l2.424-.515c5.375-1.099 10.636-1.657 16.116-1.93 2.971-.376 5.026-1.18 7.742-2.406 6.71-2.533 13.092-2.315 20.12-1.945Z"/><path fill="#F2E2DE" d="m505.687 730.312 3.554.104c5.247.214 9.86.482 14.758 2.583-3.581 1.179-6.544.884-10.273.531-8.217-.639-16.405-.532-24.64-.375l-2.033.038c-4.893.093-9.786.199-14.678.306-4.931.107-9.862.21-14.793.304-1.954.039-3.907.085-5.86.131l-3.603.071-3.151.07c-3.075-.079-5.95-.5-8.968-1.076v-1c10.465-1.061 20.929-1.371 31.437-1.625l2.716-.066c11.855-.281 23.681-.377 35.534.004Z"/><path fill="#F6F0EE" d="m239 717 2 1c.71 2.814 1.318 5.592 1.875 8.437 1.441 6.88 3.19 13.155 6.125 19.563a991.532 991.532 0 0 1 2.467 5.573 696.912 696.912 0 0 0 2.458 5.52L255 760l-1 2c-2.336-.188-2.336-.188-5-1-4.986-7.176-6.051-16.561-7.325-25.02-.414-2.696-.987-5.063-1.75-7.715-1.134-4.004-1.069-7.136-.925-11.265Z"/><path fill="#FBF9F9" d="M180 735h2l.402 2.773.535 3.602.527 3.585c.37 2.947.37 2.947 1.536 5.04 2.713 18.22 2.209 36.635 2 55l-2 1-.152-3.726c-.191-4.626-.391-9.251-.593-13.877-.086-1.99-.169-3.98-.25-5.97-.497-12.185-1.109-24.163-3.561-36.144-.47-2.422-.543-4.632-.506-7.096l.027-2.395L180 735Z"/><path fill="#E1D1CD" d="M816 655v2c-3.068.881-5.89 1.167-9.077 1.265l-3.07.101-3.317.098-7.057.237c-3.681.118-7.362.234-11.043.348-12.182.382-24.355.794-36.502 1.829l-2.631.201c-4.319.409-6.361.825-9.303 3.921l-3 1c1.25-3.654 1.671-4.781 5-7 2.109-.395 2.109-.395 4.61-.598l2.92-.239 3.22-.226 3.375-.252c12.496-.853 25.012-1.113 37.533-1.344l2.472-.049c1.523-.03 3.046-.056 4.569-.078 4.47-.087 8.846-.442 13.284-.998 2.678-.286 5.327-.284 8.017-.216Z"/><path fill="#DFD7D5" d="M791 683c3.875 1.875 3.875 1.875 5 3 .69 11.112-.21 22.025-1.5 33.062-1.601 13.728-2.536 27.196-.5 40.938l-3 2a953.462 953.462 0 0 1-.5-5.313l-.281-2.988c-.577-9.757.107-19.275 1.064-28.979 1.012-10.37 2.012-20.73 2.029-31.158l.016-2.27c-.049-3.644-.251-5.176-2.328-8.292Z"/><path fill="#ECE0DD" d="M645 748h1c1.479 6.73 2.54 13.975-.75 20.312-4.17 5.857-11.639 8.484-18.25 10.688-2.679.122-5.321.185-8 .187l-2.195.037c-3.812.011-5.558-.06-8.805-2.224l3.516-.008c9.857-.182 18.263-.901 26.484-6.992 5.19-5.783 5.255-10.648 5.719-18.165C644 749 644 749 645 748Z"/><path fill="#E5EDED" d="m424.789 960.902 2.851.009 2.984.026 3.008.013c2.456.012 4.912.029 7.367.049v1c-9.805 1.054-19.582 2.049-29.436 2.5-6.106.284-11.967.984-17.996 2.031-5.508.724-11.039.889-16.59 1.039-4.698.164-8.553.669-12.977 2.43l-3 1c.875-3.875.875-3.875 2-5 5.788-1.056 11.568-1.275 17.438-1.5 7.321-.266 7.321-.266 14.605-1 5.463-.69 10.921-.881 16.418-1.105l2.469-.114 2.226-.091c3.103-.319 5.342-1.306 8.633-1.287Z"/><path fill="#F5EFEE" d="m230 557 2 1c3.655 12.92 3.799 26.736 4.57 40.058.329 5.667.797 11.301 1.43 16.942-1.937-.964-1.937-.964-4-3a62.098 62.098 0 0 1-1.012-8.579l-.178-2.56a846.22 846.22 0 0 1-.498-8.111c-.173-2.69-.351-5.38-.53-8.07-.11-1.672-.215-3.345-.314-5.018A153.64 153.64 0 0 0 230 566a95.647 95.647 0 0 1-.062-4.938l.027-2.34L230 557Z"/><path fill="#D7C6C3" d="m357 930 1.906.402c14.737 3.041 33.232 5.063 48.051 1.07 3.001-.694 5.904-.604 8.98-.597l3.652-.008c2.943.114 5.555.45 8.411 1.133v1c-4.691.436-9.383.863-14.075 1.281-1.589.143-3.177.289-4.765.437-35.549 3.309-35.549 3.309-52.16-3.718v-1Z"/><path fill="#DDD1CF" d="m133.054 684.867 2.363-.003 2.457.01 2.433-.01c4.029.005 7.761.133 11.692 1.135v1l-3.547-.027c-12.742.141-24.869 1.977-37.327 4.465l-2.388.476c-7.623 1.532-15.201 3.165-22.737 5.086l-1-3c10.943-2.795 21.905-4.925 33.062-6.692l2.992-.476 2.672-.414c8.44-1.549 8.44-1.549 9.328-1.55Z"/><path fill="#E5DCDA" d="M672 482c-7.36 4.907-17.609 6.205-26.187 8.25l-2.213.53c-2.937.685-5.573 1.22-8.6 1.22l1 11h-2v12h-1l-1-24c7.865-3.371 7.865-3.371 11.305-4.063l2.255-.472 2.315-.465c4.909-1.025 9.667-2.053 14.375-3.813 3.844-1.216 5.912-1.269 9.75-.187Z"/><path fill="#F5F4F4" d="m566.812 497.937 3.519.027 2.668.035v2c-11.482 1.837-22.882 2.362-34.5 2.658l-3.546.096-3.182.072c-2.428.152-4.433.574-6.771 1.174a78.348 78.348 0 0 1-4.547.098l-2.558-.01-2.645-.025-2.691-.014c-2.187-.012-4.373-.028-6.559-.049v-1c4.406-.412 8.813-.821 13.22-1.227 1.492-.138 2.983-.276 4.474-.416 9.306-.87 18.599-1.602 27.933-2.096 5.18-.401 9.946-1.375 15.185-1.323Z"/><path fill="#DED3D0" d="M353 836h1c1.57 22.71.939 45.268 0 68h-1c-.816-6.225-1.081-12.327-1.062-18.594l.004-2.499c.035-9.535.291-19.064.558-28.595l.145-5.377c.116-4.312.235-8.624.355-12.935Z"/><path fill="#EFE1DF" d="M94 410c1.745 2.618 2.471 4.173 3.296 7.105l.707 2.458.747 2.624C104.122 441.14 104.122 441.14 114 458l-1 2c-7.691-9.027-11.672-19.856-15.813-30.813l-.916-2.388C94.443 421.833 93.356 417.291 93 412l1-2Z"/><path fill="#F6E5E2" d="M595 587h2c2.329 13.447 4.211 26.31 4 40h-3l-.168-2.184c-.254-3.293-.512-6.586-.77-9.879l-.264-3.436c-.518-6.784-.518-6.784-1.361-13.533-.547-3.72-.502-7.215-.437-10.968Z"/><path fill="#F0E3E0" d="M84 764h1l.332 3.628C86.551 780.365 88.377 792.695 92 805c-6.42-5.992-6.877-12.15-8.187-20.563l-.576-3.482-.529-3.334-.486-3.049C82 772 82 772 83 769c.349-1.664.685-3.33 1-5Z"/><path fill="#E0CDC9" d="m399.125 504.875 2.07.002c9.965.015 19.876.221 29.805 1.123-3.839 2.618-7.597 2.012-12 1.625-1.535-.112-3.071-.222-4.606-.329l-2.275-.162c-7.751-.493-15.353-.082-23.072.643-5.014.366-10.022.303-15.047.223v-2c8.374-1.084 16.694-1.156 25.125-1.125Z"/><path fill="#FBF9F9" d="M634 503h2c.89 13.016 1.115 25.955 1 39l-2-1c-1.674-8.154-1.12-16.911-1.062-25.188l.014-3.752c.011-3.02.028-6.04.048-9.06Z"/><path fill="#F4E9E7" d="m172 673 2 1c.594 2.281.594 2.281 1.07 5.285l.527 3.298.528 3.479.55 3.396c.925 5.919 1.544 11.552 1.325 17.542-2.683-2.683-2.765-4.857-3.5-8.563-.831-4.126-1.679-8.227-2.687-12.312-.927-4.124-1.039-7.906-.813-12.125l1-1Z"/><path fill="#D1E0E0" d="m240.375 960.375 3.773.21L247 961l1 2-2.329-.016c-15.928-.094-31.768.042-47.671 1.016 3.624-2.416 5.751-2.353 10.063-2.563 26.958-1.362 26.958-1.362 32.312-1.062Z"/><path fill="#E5DDDB" d="m131 565 1 2-3.558.515A331.998 331.998 0 0 0 96 574l-1-3c11.833-3.166 23.656-6.222 36-6Z"/><path fill="#EDE6E5" d="M661 633c3.045 2.379 3.927 3.558 4.562 7.437-.542 3.431-1.038 5.069-3.652 7.363-4.313 2.709-9.156 4.418-13.91 6.2l-2-3 2.266-.735 2.984-1.015 2.954-.985c3.077-1.392 4.759-2.574 6.796-5.265.48-2.586.48-2.586.25-5.25l-.11-2.704L661 633Z"/><path fill="#EDE7E6" d="M725 456v3c-8.466 4.933-16.467 8.488-26 11l-1-3 3.219-1.137C708.058 463.401 718.438 456 725 456Z"/><path fill="#E5D7D4" d="m464.25 730.937 4.316.013c3.478.011 6.956.028 10.434.049v1c-7.519 1.123-15.033 1.367-22.625 1.625l-3.929.156-3.797.133-3.432.124c-3.18-.038-6.1-.429-9.217-1.038v-1c9.431-.994 18.783-1.12 28.25-1.062Z"/><path fill="#EDE5E4" d="M296 612c5.874 5.723 5.874 5.723 6.375 10.812-.045 3.486-.319 4.114-2.563 7.063-2.653 2.004-4.602 3.302-7.812 4.125-2.312-.375-2.312-.375-4-1 3-2 3-2 6.125-2.938L297 629c1.665-4.997 1.634-10.058 0-15.063L296 612Z"/><path fill="#F9F5F4" d="M639 591h2c1.232 11.035 2.365 21.881 2 33h-2c-1.832-11.088-2.231-21.78-2-33Z"/><path fill="#F3EBE9" d="M278 578h2c1.155 2.311 1.276 4.005 1.5 6.578l.25 2.769.25 2.903c.724 8.409.724 8.409 2 16.75l-3-1c-2.06-6.11-2.402-12.094-2.625-18.5l-.118-2.782c-.093-2.239-.179-4.479-.257-6.718Z"/><path fill="#EEE1DF" d="M202 886h2l.563 2.016a1211.55 1211.55 0 0 0 2.624 9.109l.885 3.171c1.772 6.023 3.461 10.244 7.928 14.704l-1 2c-7.43-8.977-13-19.032-13-31Z"/><path fill="#E3D6D3" d="M152 686v1l-1.876.06c-2.854.096-5.708.205-8.561.315l-2.951.093c-5.413.217-10.451.745-15.701 2.104-2.654.594-5.206.566-7.911.428 7.677-7.676 27.023-6.459 37-4Z"/><path fill="#F7F3F2" d="m149 540 2 1a99.344 99.344 0 0 1 1.125 7.875l.257 2.32c.621 5.945.85 11.827.618 17.805l-2-1c-2.187-9.224-2.257-18.58-2-28Z"/><path fill="#F4E3E0" d="m357.562 817.937 2.437.062-1.454 1.031c-2.281 2.907-2.133 5.922-2.275 9.481a1339.3 1339.3 0 0 0-.122 2.206 810.556 810.556 0 0 0-.336 6.97c-.081 1.576-.164 3.152-.248 4.728-.202 3.861-.388 7.722-.564 11.584h-1c-.025-4.966-.043-9.932-.055-14.899-.005-1.69-.012-3.381-.02-5.072-.013-2.425-.018-4.85-.023-7.275l-.015-2.304c0-1.817.051-3.634.113-5.45 1-1 1-1 3.562-1.062Z"/><path fill="#F5F0EF" d="M180 735h2l.402 2.773.535 3.602.527 3.585c.37 2.947.37 2.947 1.536 5.04.228 2.037.41 4.08.562 6.125l.254 3.32L186 762l-3 1-.403-2.887-.535-3.801-.527-3.762a107.01 107.01 0 0 0-1.098-6.207c-.455-2.442-.536-4.675-.499-7.156l.027-2.395L180 735Z"/><path fill="#FEFEFE" d="M816 655v2c-2.843.809-5.357 1.122-8.309 1.113h-2.547l-2.722-.016-2.807-.004c-2.955-.006-5.91-.018-8.865-.031l-6.015-.014A8041.62 8041.62 0 0 1 770 658v-1l2.703-.076c3.35-.096 6.699-.195 10.048-.297 1.442-.043 2.884-.084 4.326-.125 9.623-.27 19.341-1.747 28.923-1.502Z"/><path fill="#D8E1E1" d="M155 1061h1l.078 2.273c.636 11.476 4.229 19.49 10.922 28.727l-1 2c-12.258-16.604-12.258-16.604-13-26h2v-7Z"/><path fill="#E4D3D0" d="M96 711c3.824 1.229 5.19 3.536 7.072 6.96 1.549 3.406 2.158 6.863 2.74 10.54l.404 2.183c.8 4.729.694 8.608-.216 13.317h-1l-.304-2.2c-.466-3.311-.956-6.618-1.446-9.925l-.477-3.461c-.931-6.161-1.77-10.581-5.773-15.414l-1-2Z"/><path fill="#D6CFCD" d="m566.812 497.937 3.519.027 2.668.035v2c-11.535 1.404-22.407 2.42-33.999 1v-1l3.324-.184 4.363-.253 2.186-.12c2.969-.176 5.802-.377 8.721-.974 3.104-.604 6.059-.562 9.218-.531Z"/><path fill="#F5F5F5" d="M322 1073h2c.027 2.895.046 5.791.062 8.687l.025 2.475c.017 4.082-.057 7.854-1.087 11.838h-3l2-23Z"/><path fill="#D8C4C0" d="M554 747c4.629 4.629 4.548 13.413 5.187 19.687l.287 2.51c.436 4.156.698 7.721-.474 11.803h-1c-1.432-7.587-2.303-15.069-2.782-22.774-.256-3.773-.694-7.483-1.218-11.226Z"/><path fill="#E1DBDA" d="M266 638v2c-7.959 2.094-15.809 2.589-24 3v-3c3.063-.338 6.125-.67 9.188-1l2.619-.29c4.081-.437 8.081-.846 12.193-.71Z"/><path fill="#ECE3E2" d="M52 657h1l1 24c-2-1-2-1-3.125-3.938-1.238-4.646-1.047-9.291-.875-14.062h2v-6Z"/><path fill="#DEE1E1" d="M196 962v1l-2.273.55c-6.639 1.631-13.2 3.414-19.727 5.45l-1-3a594.884 594.884 0 0 1 7.563-2.563l2.135-.748c4.898-1.602 8.259-1.795 13.302-.689Z"/><path fill="#DFC5C0" d="M187 779h1l1 34h-2v9h-1c-.179-14.354.379-28.662 1-43Z"/><path fill="#CAD0D0" d="m378.437 964.937 2.216.013c1.782.012 3.564.03 5.346.049-4.468 2.852-9.665 2.74-14.8 3.211-5.349.537-5.349.537-10.199 2.789.875-3.875.875-3.875 2-5 5.19-.955 10.187-1.124 15.437-1.062Z"/><path fill="#F6F1F0" d="m358.765 505.902 2.695.009 2.789.026 2.836.013c2.305.012 4.609.029 6.914.049v1c-13.065 1.655-25.833 2.25-38.999 2v-1l3.14-.183 4.11-.254 2.066-.119c3.845-.226 3.845-.226 7.616-.958 2.343-.551 4.427-.598 6.833-.583Z"/><path fill="#E7CFCA" d="m474.187 79.812 2.115-.037c3.837-.011 6.366.372 9.697 2.224-4.124.225-8.249.427-12.374.625l-3.563.195-3.398.157-3.142.158C461 82.999 461 82.999 459 80.999c5.101-.834 10.022-1.183 15.187-1.187Z"/><path fill="#FCFCFC" d="M154 1045h2c.027 2.52.046 5.041.062 7.562l.025 2.135c.021 4.543-.339 8.82-1.087 13.303h-2c-.136-7.728.249-15.309 1-23Z"/><path fill="#F8F2F1" d="M80 748h2c2.016 7.436 2.213 14.316 2 22l-2-1a87.26 87.26 0 0 1-1.125-7.188l-.262-2.002A80.536 80.536 0 0 1 80 748Z"/><path fill="#F1E4E2" d="M280 94c-5.201 3.009-11.142 3.213-17 4l-2.781.417c-2.062.285-4.141.446-6.219.583l-2-2c9.384-1.849 18.383-3.56 28-3Z"/><path fill="#D9E0E0" d="m462.812 958.812 2.644-.042c2.652.239 4.268.887 6.543 2.229l-2.555.184-3.32.254-3.305.246c-2.766.146-2.766.146-4.819 1.316-2.207.071-4.417.084-6.625.063l-3.602-.028-2.773-.035v-1l2.59-.402 3.347-.535 3.34-.528c3.367-.662 4.877-1.696 8.535-1.722Z"/><path fill="#FAF7F7" d="M595 587h2c1.282 7.411 2.255 14.472 2 22-3.948-3.948-3.863-11.166-4.125-16.571 0-1.81.056-3.62.125-5.429Z"/><path fill="#EDDEDB" d="M176 108c-2.753 1.835-4.116 2.407-7.23 3.07l-2.432.527-2.525.528-2.561.55c-2.082.447-4.167.887-6.252 1.325l-1-3c2.353-.509 4.707-1.008 7.063-1.5l1.99-.434c4.379-.906 8.452-1.206 12.947-1.066Z"/><path fill="#E7DFDE" d="M559 776h1c.027 2.708.046 5.416.062 8.125l.025 2.304c.019 4.309-.226 8.326-1.087 12.571h-2c.142-2.897.288-5.792.438-8.688l.119-2.475c.212-4.034.488-7.895 1.443-11.837Z"/><path fill="#FCFCFC" d="m288 699 2 1-1 25-2 1c-.029-3.188-.046-6.375-.062-9.563l-.025-2.713c-.019-5.024.225-9.773 1.087-14.724Z"/><path fill="#E3DAD9" d="M524 810v2c-6.085 1.396-11.745 2.446-18 2l-2-2c2.208-.339 4.417-.671 6.625-1l3.727-.563c3.265-.392 6.366-.517 9.648-.437Z"/><path fill="#D7E0E0" d="M320 1002h1l1 18h-2l-1 4-1-15h2v-7Z"/><path fill="#EFE7E6" d="M197 869h2l4 17-2 1c-4.592-11.338-4.592-11.338-4-18Z"/><path fill="#E2DBD9" d="m239 717 2 1a90.536 90.536 0 0 1 1.687 7.25l.432 2.027c.764 3.87.979 6.918-.119 10.723h-1c-1.818-7.098-3.432-13.651-3-21Z"/><path fill="#ECDFDC" d="M615 494c-2.974 2.974-6.49 2.802-10.5 3.25l-2.378.312c-2.032.237-4.078.346-6.122.438l-2-2c7.091-1.51 13.751-2.283 21-2Z"/><path fill="#E4D3D0" d="M672 482c-2.624 1.749-4.557 2.653-7.5 3.625l-2.343.789C660 487 660 487 657 487v-3c5.314-2.089 9.288-3.611 15-2Z"/><path fill="#E3E5E4" d="M689 941v1l-2.046.367-2.704.508-2.671.492c-2.488.61-4.42 1.259-6.579 2.633-.811 2.555-.811 2.555-1 5h-1c-.312-2.75-.312-2.75 0-6 5.207-5.35 8.918-5.225 16-4Z"/><path fill="#F7EEED" d="M604 714c2.32 1.806 2.953 2.662 3.363 5.628l-.051 2.934-.012 2.941C607 728 607 728 605 730c-1.14-3.423-1.098-6.087-1.062-9.688l.027-3.574L604 714Z"/><path fill="#EBE0DE" d="M457 760c4.851 2.017 6.685 5.448 9 10 .812 3 .812 3 1 5h-3l-1.024-2.52-1.351-3.293-1.336-3.27c-1.237-3.025-1.237-3.025-3.289-5.917Z"/><path fill="#CBD8D7" d="m331.812 965.875 2.957.054 2.23.071 1 2-2.23.148-2.957.227-2.917.21c-2.91.417-5.224 1.213-7.895 2.415l-1-3c3.772-1.752 6.667-2.224 10.812-2.125Z"/><path fill="#DFCECB" d="M456 819v1c-8.84.775-17.167 1.193-26 0v-1c8.841-.775 17.168-1.193 26 0Z"/><path fill="#EADEDB" d="M593 555h1l1 15-3 1a465.26 465.26 0 0 1-.625-5.75l-.351-3.235c-.024-3.053.362-4.477 1.976-7.015Z"/><path fill="#F4E9E7" d="M92 394h1a124.916 124.916 0 0 1 1 18l-2-1c-.632-2.942-.632-2.942-1.125-6.563l-.507-3.629L90 398h2v-4Z"/><path fill="#F8F5F4" d="m230 557 2 1c.475 2.54.84 5 1.125 7.562l.261 2.154c.213 1.76.414 3.522.614 5.284h-3c-.917-5.385-1.111-10.543-1-16Z"/><path fill="#D4D9D9" d="M348 966h7l1 2h-5v5h-6l2-2c.648-2.571.648-2.571 1-5Z"/><path fill="#F7F8F8" d="M593 949c-3.837 2.558-6.382 3.124-10.886 3.097l-2.842-.01-2.959-.025-2.994-.014c-2.44-.011-4.879-.028-7.319-.048v-1l3.868-.184 5.007-.254 2.551-.119 2.442-.127 2.253-.111c3.778-.413 6.843-1.279 10.879-1.205Z"/><path fill="#E2DDDC" d="m743 659 2 2-3.812.312c-3.434.417-4.987.908-7.188 3.688l-3 1c2.266-6.622 5.167-7.496 12-7Z"/><path fill="#EDDDD9" d="M87 788h1l.367 1.941c.989 5.108 2.118 10.081 3.633 15.059-2.675-2.497-4.661-4.578-6-8 .024-2.36.024-2.36.375-4.75l.336-2.422L87 788Z"/><path fill="#E3D3D0" d="M791 744h1c2.556 11.549 2.556 11.549 2 16l-3 2a1383.45 1383.45 0 0 1-.562-7.313l-.17-2.092c-.233-3.221-.3-5.499.732-8.595Z"/><path fill="#F9F9F9" d="M274.378 507.902c1.394.006 2.789.018 4.183.035l2.154.013c1.761.012 3.523.03 5.284.049v1l-11.999 1-1 7-2-1c-.688-3.5-.688-3.5-1-7 1-1 1-1 4.378-1.097Z"/><path fill="#B6BDBD" d="M568 952c-3.109 1.829-5.181 2.206-8.765 1.976l-2.695-.156-2.79-.195-2.835-.172c-2.306-.142-4.61-.293-6.915-.453v-1a1782.5 1782.5 0 0 1 8.625-.562l2.45-.17c4.487-.274 8.494-.236 12.925.732Z"/><path fill="#E1CFCB" d="M207 899c1.272 2.446 2.348 4.87 3.375 7.437 1.535 3.367 3.195 5.797 5.625 8.563l-1 2c-1.127-1.437-2.251-2.875-3.375-4.313l-1.899-2.426c-3.764-4.932-3.764-4.932-3.351-8.449L207 899Z"/><path fill="#BCB9B8" d="m637 583 1 2h2l1 6h-2v13h-1l-1-21Z"/><path fill="#E0D3D0" d="M109 762h1c.962 6.373 1.106 12.559 1 19h-1c-1.938-6.632-2.052-12.186-1-19Z"/><path fill="#E3D7D5" d="m99 692-1 2c-2.722.851-2.722.851-6.062 1.625l-3.348.789L86 697l-1-3c4.843-1.336 8.935-2.253 14-2Z"/><path fill="#E7D4D0" d="M816 655v2c-3.155.936-5.965 1.105-9.25 1.062l-2.703-.027L802 658l-1-2c5.025-.626 9.926-1.13 15-1Z"/><path fill="#E9DFDD" d="M153 567c2.002 3.004 2.492 4.709 3.125 8.187l.507 2.73L157 580l-3 1a737.936 737.936 0 0 1-1.062-5.875l-.598-3.305C152 569 152 569 153 567Z"/><path fill="#D5D3D2" d="M633 495h2l1 8h-2v12h-1v-20Z"/><path fill="#BBB6B5" d="M559 499v2c-4.619.959-8.681.961-13.375.562l-3.773-.309L539 501v-1c2.584-.169 5.167-.335 7.75-.5l2.211-.145c3.358-.214 6.674-.355 10.039-.355Z"/><path fill="#F0E4E1" d="M87 696c-4.018 1.812-7.611 3.335-12 4l-1-3c1.414-.366 2.832-.717 4.25-1.062l2.391-.598c2.463-.354 4.016-.108 6.359.66Z"/><path fill="#DDD7D6" d="M354 871h1c-.143 1.729-.29 3.458-.438 5.187l-.246 2.918c-.293 2.681-.743 5.261-1.316 7.895h-1a525.722 525.722 0 0 1-.125-5.75l-.07-3.235c.191-2.94.669-4.539 2.195-7.015Z"/><path fill="#E2D5D3" d="M195 858c1.963 3.505 2.959 7.133 4 11h-2l-1 2a629.702 629.702 0 0 1-1.062-5.375l-.598-3.024C194 860 194 860 195 858Z"/><path fill="#F4EEED" d="M84 780h2c1.283 3.849 1.066 6.947 1 11h-2c-1.175-3.675-1.073-7.17-1-11Z"/><path fill="#DCC3BF" d="M242 640c5.151-.09 9.919.153 15 1v1l-15 1v-3Z"/><path fill="#FEFEFE" d="M187 813h2v11h-3l1-11Z"/><path fill="#F6F1F0" d="m342 747 2 1-1.875 2.25c-2.131 2.554-2.131 2.554-3.187 5C338 757 338 757 335 758c1.278-4.993 3.174-7.577 7-11Z"/><path fill="#F1EDED" d="m174 694 1 2h2c1.283 3.849 1.066 6.947 1 11-2.525-2.525-2.558-4.139-3.125-7.625l-.508-3.04L174 694Z"/><path fill="#E0CFCC" d="M226 101v1a468.92 468.92 0 0 1-5.812.625l-3.27.351C214 103 214 103 211 101c5.347-1.002 9.624-.848 15 0Z"/><path fill="#CCD8D8" d="M181 964v3l-7 2-1-3c5.75-2 5.75-2 8-2Z"/><path fill="#F6F4F3" d="m393.066 932.902 2.496.035 2.504.027 1.933.035v1c-5.783 2.012-10.901 2.221-16.999 2v-1l3.438-.437c3.02-.477 3.926-1.533 6.628-1.66Z"/><path fill="#F2E5E2" d="M232 573h2c1.394 2.788 1.256 4.92 1 8l-3 2v-10Z"/><path fill="#EDE7E5" d="m227 535 2 1c.593 2.648.742 5.291 1 8h-2l-1 2v-11Z"/><path fill="#DDDADA" d="M179 728h2l1 7h-2v6h-1v-13Z"/><path fill="#E9E0DE" d="M78 725h1l1 10h-3c-.976-6.055-.976-6.055-1-8l2-2Z"/><path fill="#D4CCCA" d="M176 705h3c.687 3.312.687 3.312 1 7l-3 3-1-10Z"/><path fill="#F2E5E3" d="M169 657h1l1 11-3-2 1-9Z"/><path fill="#EAE2E1" d="M164 641h3l1 8-3 1-1-9Z"/><path fill="#EBD9D5" d="M275 539h1l1 10-3 1c-1.25-7.625-1.25-7.625 1-11Z"/><path fill="#EEF2F2" d="M174 968c-2.688 2.252-4.646 3.882-8 5 .813-2.438.813-2.438 2-5 3-1 3-1 6 0Z"/><path fill="#E3D8D6" d="m541 897 3 1-2 8h-3l2-9Z"/><path fill="#E1D6D4" d="M190 836h1l1 9-3-1-1-6h2v-2Z"/><path fill="#F6F2F2" d="m631 775-1 3h-12v-1c1.604-.337 3.208-.67 4.813-1l2.707-.563C628 775 628 775 631 775Z"/><path fill="#E1D8D7" d="M725 456v3l-6 3v-4c3-2 3-2 6-2Z"/><path fill="#EBDBD8" d="M94 410c2.125 3.187 2.502 5.265 3 9l-3 1c-1.125-7.75-1.125-7.75 0-10Z"/><path fill="#E2E2E2" d="m164 818 7 1-1 3c-2.169-.507-4-1-6-2v-2Z"/><path fill="#E8E3E3" d="m133.187 684.937 3.812.062c-2.799 2.799-5.13 2.724-8.999 3l-2-2c2.751-.917 4.359-1.108 7.187-1.062Z"/><path fill="#CBD7D7" d="M689 941v1c-7.625 1.25-7.625 1.25-11-1 3.818-1.374 7.073-.679 11 0Z"/><path fill="#F0E9E8" d="M356 740c1.945-.292 1.945-.292 4.125-.187L364 740c-3.445 2.296-5.939 2.54-10 3l2-3Z"/><path fill="#FAF7F7" d="M72 698h3l-1 8-2-1v-7Z"/><path fill="#DBD6D5" d="m172 673 2 1c.369 4.553.369 4.553-1.5 6.812L171 682c-.097-6.153-.097-6.153 0-8l1-1Z"/><path fill="#E3D9D7" d="M103 571c-2.359 2.359-3.778 2.491-7 3l-1-3c3.29-1.096 4.714-.799 8 0Z"/><path fill="#E7E4E3" d="m690 472-1 3c-2.562 1.187-2.562 1.187-5 2l-1-3c2.648-1.461 3.895-2 7-2Z"/><path fill="#D6DFDF" d="M153 1039h2l1 6h-2l-1 2v-8Z"/><path fill="#EDE4E2" d="m635 772 2 1v2l-6 2v-3c1.875-1.063 1.875-1.063 4-2Z"/><path fill="#FAF1F0" d="m78 734 2 1a109.15 109.15 0 0 1 1 7h-2c-1.354-2.709-1.065-5.01-1-8Z"/></svg>